RobotoSerifMicro-SuperWideItalic03ip.ufo
<glyph name="exclam" format="2">
  <advance width="530"/>
  <unicode hex="0021"/>
  <outline>
    <contour>
      <point x="558" y="766" type="line"/>
      <point x="499" y="558"/>
      <point x="392" y="477"/>
      <point x="334" y="286" type="curve"/>
      <point x="182" y="286" type="line"/>
      <point x="241" y="477"/>
      <point x="197" y="575"/>
      <point x="253" y="766" type="curve"/>
    </contour>
    <component base="period" xOffset="-38"/>
  </outline>
</glyph>
<glyph name="asterisk" format="2">
  <advance width="798"/>
  <unicode hex="002A"/>
  <outline>
    <contour>
      <point x="139" y="625" type="curve"/>
      <point x="267" y="757" type="line"/>
      <point x="356" y="699"/>
      <point x="365" y="644"/>
      <point x="438" y="590" type="curve"/>
      <point x="378" y="529" type="line"/>
      <point x="295" y="577"/>
      <point x="227" y="568"/>
    </contour>
    <contour>
      <point x="152" y="357" type="curve"/>
      <point x="93" y="504" type="line"/>
      <point x="207" y="543"/>
      <point x="283" y="525"/>
      <point x="389" y="556" type="curve"/>
      <point x="413" y="486" type="line"/>
      <point x="312" y="447"/>
      <point x="266" y="397"/>
    </contour>
    <contour>
      <point x="463" y="269" type="curve"/>
      <point x="273" y="269" type="line"/>
      <point x="302" y="384"/>
      <point x="362" y="421"/>
      <point x="392" y="506" type="curve"/>
      <point x="482" y="496" type="line"/>
      <point x="460" y="410"/>
      <point x="492" y="363"/>
    </contour>
    <contour>
      <point x="432" y="804" type="curve"/>
      <point x="621" y="804" type="line"/>
      <point x="592" y="688"/>
      <point x="533" y="653"/>
      <point x="502" y="567" type="curve"/>
      <point x="412" y="578" type="line"/>
      <point x="435" y="663"/>
      <point x="403" y="709"/>
    </contour>
    <contour>
      <point x="628" y="318" type="line"/>
      <point x="541" y="374"/>
      <point x="527" y="431"/>
      <point x="454" y="486" type="curve"/>
      <point x="514" y="547" type="line"/>
      <point x="598" y="499"/>
      <point x="667" y="508"/>
      <point x="753" y="452" type="curve"/>
    </contour>
    <contour>
      <point x="801" y="576" type="line"/>
      <point x="685" y="539"/>
      <point x="611" y="548"/>
      <point x="506" y="516" type="curve"/>
      <point x="480" y="586" type="line"/>
      <point x="583" y="626"/>
      <point x="626" y="681"/>
      <point x="742" y="720" type="curve"/>
    </contour>
  </outline>
</glyph>
<glyph name="slash" format="2">
  <advance width="700"/>
  <unicode hex="002F"/>
  <outline>
    <contour>
      <point x="655" y="780" type="line"/>
      <point x="-109" y="-158" type="line"/>
      <point x="45" y="-158" type="line"/>
      <point x="810" y="780" type="line"/>
    </contour>
  </outline>
</glyph>
<glyph name="zero" format="2">
  <advance width="686"/>
  <unicode hex="0030"/>
  <outline>
    <contour>
      <point x="270" y="-11" type="curve" smooth="yes"/>
      <point x="576" y="-11"/>
      <point x="672" y="285"/>
      <point x="672" y="472" type="curve" smooth="yes"/>
      <point x="672" y="617"/>
      <point x="569" y="697"/>
      <point x="420" y="697" type="curve" smooth="yes"/>
      <point x="114" y="697"/>
      <point x="17" y="402"/>
      <point x="17" y="214" type="curve" smooth="yes"/>
      <point x="17" y="70"/>
      <point x="122" y="-11"/>
    </contour>
    <contour>
      <point x="274" y="88" type="curve" smooth="yes"/>
      <point x="239" y="88"/>
      <point x="225" y="98"/>
      <point x="225" y="127" type="curve" smooth="yes"/>
      <point x="225" y="164"/>
      <point x="236" y="235"/>
      <point x="273" y="360" type="curve" smooth="yes"/>
      <point x="337" y="565"/>
      <point x="367" y="599"/>
      <point x="415" y="599" type="curve" smooth="yes"/>
      <point x="451" y="599"/>
      <point x="465" y="588"/>
      <point x="465" y="560" type="curve" smooth="yes"/>
      <point x="465" y="522"/>
      <point x="454" y="451"/>
      <point x="417" y="326" type="curve" smooth="yes"/>
      <point x="353" y="122"/>
      <point x="323" y="88"/>
    </contour>
  </outline>
</glyph>
<glyph name="one" format="2">
  <advance width="685"/>
  <unicode hex="0031"/>
  <outline>
    <contour>
      <point x="449" y="131" type="curve" smooth="yes"/>
      <point x="618" y="683" type="line"/>
      <point x="399" y="683" type="line"/>
      <point x="342" y="638"/>
      <point x="280" y="610"/>
      <point x="136" y="609" type="curve"/>
      <point x="96" y="469" type="line"/>
      <point x="221" y="468"/>
      <point x="298" y="490"/>
      <point x="362" y="608" type="curve"/>
      <point x="337" y="602" type="line"/>
      <point x="192" y="131" type="line" smooth="yes"/>
      <point x="180" y="91"/>
      <point x="127" y="84"/>
      <point x="53" y="84" type="curve" smooth="yes"/>
      <point x="6" y="84" type="line"/>
      <point x="-19" y="0" type="line"/>
      <point x="561" y="0" type="line"/>
      <point x="586" y="84" type="line"/>
      <point x="558" y="84" type="line"/>
      <point x="484" y="84"/>
      <point x="437" y="91"/>
    </contour>
  </outline>
</glyph>
<glyph name="nine" format="2">
  <advance width="686"/>
  <unicode hex="0039"/>
  <outline>
    <contour>
      <point x="397" y="697" type="curve" smooth="yes"/>
      <point x="580" y="697"/>
      <point x="665" y="625"/>
      <point x="665" y="473" type="curve" smooth="yes"/>
      <point x="665" y="216"/>
      <point x="516" y="-77"/>
      <point x="-44" y="-83" type="curve"/>
      <point x="-30" y="20" type="line"/>
      <point x="234" y="36"/>
      <point x="344" y="83"/>
      <point x="415" y="348" type="curve" smooth="yes"/>
      <point x="442" y="447"/>
      <point x="452" y="525"/>
      <point x="452" y="562" type="curve" smooth="yes"/>
      <point x="452" y="592"/>
      <point x="435" y="604"/>
      <point x="393" y="604" type="curve" smooth="yes"/>
      <point x="343" y="604"/>
      <point x="322" y="571"/>
      <point x="291" y="456" type="curve" smooth="yes"/>
      <point x="278" y="408"/>
      <point x="272" y="377"/>
      <point x="272" y="355" type="curve" smooth="yes"/>
      <point x="272" y="325"/>
      <point x="297" y="316"/>
      <point x="324" y="316" type="curve" smooth="yes"/>
      <point x="362" y="316"/>
      <point x="393" y="336"/>
      <point x="446" y="387" type="curve"/>
      <point x="452" y="365" type="line"/>
      <point x="389" y="290"/>
      <point x="325" y="223"/>
      <point x="211" y="223" type="curve" smooth="yes"/>
      <point x="104" y="223"/>
      <point x="42" y="275"/>
      <point x="42" y="360" type="curve" smooth="yes"/>
      <point x="42" y="526"/>
      <point x="136" y="697"/>
    </contour>
  </outline>
</glyph>
<glyph name="question" format="2">
  <advance width="832"/>
  <unicode hex="003F"/>
  <outline>
    <contour>
      <point x="308" y="449" type="curve"/>
      <point x="258" y="287" type="line"/>
      <point x="457" y="287" type="line"/>
      <point x="492" y="400" type="line"/>
      <point x="702" y="401"/>
      <point x="848" y="455"/>
      <point x="848" y="610" type="curve" smooth="yes"/>
      <point x="848" y="710"/>
      <point x="735" y="762"/>
      <point x="494" y="762" type="curve" smooth="yes"/>
      <point x="361" y="762"/>
      <point x="231" y="727"/>
      <point x="191" y="711" type="curve"/>
      <point x="135" y="529" type="line"/>
      <point x="354" y="529" type="line"/>
      <point x="403" y="693" type="line"/>
      <point x="347" y="690"/>
      <point x="332" y="654"/>
      <point x="329" y="637" type="curve"/>
      <point x="349" y="646"/>
      <point x="400" y="669"/>
      <point x="465" y="669" type="curve" smooth="yes"/>
      <point x="534" y="669"/>
      <point x="572" y="657"/>
      <point x="572" y="615" type="curve" smooth="yes"/>
      <point x="572" y="534"/>
      <point x="511" y="451"/>
    </contour>
    <component base="period" xOffset="71" yOffset="-1"/>
  </outline>
</glyph>
<glyph name="C" format="2">
  <advance width="957"/>
  <unicode hex="0043"/>
  <anchor x="510" y="741" name="top"/>
  <anchor x="510" y="0" name="bottom"/>
  <outline>
    <contour>
      <point x="613" y="629" type="curve" smooth="yes"/>
      <point x="727" y="629"/>
      <point x="775" y="576"/>
      <point x="780" y="461" type="curve"/>
      <point x="922" y="461" type="line"/>
      <point x="1002" y="720" type="line"/>
      <point x="886" y="720" type="line"/>
      <point x="802" y="531" type="line"/>
      <point x="840" y="531" type="line"/>
      <point x="836" y="659"/>
      <point x="773" y="735"/>
      <point x="573" y="735" type="curve" smooth="yes"/>
      <point x="250" y="735"/>
      <point x="54" y="513"/>
      <point x="54" y="266" type="curve" smooth="yes"/>
      <point x="54" y="67"/>
      <point x="210" y="-25"/>
      <point x="472" y="-25" type="curve" smooth="yes"/>
      <point x="681" y="-25"/>
      <point x="798" y="60"/>
      <point x="884" y="200" type="curve"/>
      <point x="781" y="251" type="line"/>
      <point x="717" y="155"/>
      <point x="646" y="81"/>
      <point x="504" y="81" type="curve" smooth="yes"/>
      <point x="397" y="81"/>
      <point x="344" y="120"/>
      <point x="344" y="218" type="curve" smooth="yes"/>
      <point x="344" y="359"/>
      <point x="425" y="629"/>
    </contour>
  </outline>
</glyph>
<glyph name="D" format="2">
  <advance width="1026"/>
  <unicode hex="0044"/>
  <anchor x="508" y="741" name="top"/>
  <anchor x="508" y="0" name="bottom"/>
  <outline>
    <contour>
      <point x="135" y="610" type="line"/>
      <point x="149" y="610" type="line" smooth="yes"/>
      <point x="184" y="610"/>
      <point x="209" y="603"/>
      <point x="200" y="574" type="curve" smooth="yes"/>
      <point x="64" y="137" type="line" smooth="yes"/>
      <point x="54" y="108"/>
      <point x="26" y="101"/>
      <point x="-8" y="101" type="curve" smooth="yes"/>
      <point x="-23" y="101" type="line"/>
      <point x="-53" y="0" type="line"/>
      <point x="483" y="0" type="line" smooth="yes"/>
      <point x="813" y="0"/>
      <point x="997" y="197"/>
      <point x="997" y="426" type="curve" smooth="yes"/>
      <point x="997" y="611"/>
      <point x="836" y="710"/>
      <point x="579" y="710" type="curve" smooth="yes"/>
      <point x="165" y="710" type="line"/>
    </contour>
    <contour>
      <point x="565" y="611" type="line" smooth="yes"/>
      <point x="672" y="611"/>
      <point x="715" y="560"/>
      <point x="715" y="474" type="curve" smooth="yes"/>
      <point x="715" y="329"/>
      <point x="638" y="99"/>
      <point x="453" y="99" type="curve" smooth="yes"/>
      <point x="330" y="99" type="line"/>
      <point x="491" y="611" type="line"/>
    </contour>
  </outline>
</glyph>
<glyph name="K" format="2">
  <advance width="1057"/>
  <unicode hex="004B"/>
  <anchor x="538" y="741" name="top"/>
  <anchor x="538" y="0" name="bottom"/>
  <outline>
    <contour>
      <point x="-53" y="0" type="line"/>
      <point x="362" y="0" type="line"/>
      <point x="392" y="101" type="line"/>
      <point x="384" y="101" type="line" smooth="yes"/>
      <point x="362" y="101"/>
      <point x="332" y="104"/>
      <point x="334" y="111" type="curve" smooth="yes"/>
      <point x="488" y="600" type="line" smooth="yes"/>
      <point x="490" y="607"/>
      <point x="515" y="610"/>
      <point x="554" y="610" type="curve" smooth="yes"/>
      <point x="568" y="610" type="line"/>
      <point x="597" y="710" type="line"/>
      <point x="165" y="710" type="line"/>
      <point x="135" y="610" type="line"/>
      <point x="148" y="610" type="line" smooth="yes"/>
      <point x="184" y="610"/>
      <point x="209" y="603"/>
      <point x="200" y="574" type="curve" smooth="yes"/>
      <point x="64" y="137" type="line" smooth="yes"/>
      <point x="54" y="108"/>
      <point x="26" y="101"/>
      <point x="-9" y="101" type="curve" smooth="yes"/>
      <point x="-23" y="101" type="line"/>
    </contour>
    <contour>
      <point x="494" y="0" type="line"/>
      <point x="930" y="0" type="line"/>
      <point x="960" y="101" type="line"/>
      <point x="939" y="101" type="line" smooth="yes"/>
      <point x="920" y="101"/>
      <point x="902" y="104"/>
      <point x="891" y="122" type="curve" smooth="yes"/>
      <point x="652" y="496" type="line"/>
      <point x="580" y="351" type="line"/>
      <point x="918" y="581" type="line" smooth="yes"/>
      <point x="953" y="605"/>
      <point x="984" y="610"/>
      <point x="1023" y="610" type="curve" smooth="yes"/>
      <point x="1041" y="610" type="line"/>
      <point x="1071" y="710" type="line"/>
      <point x="718" y="710" type="line"/>
      <point x="688" y="610" type="line"/>
      <point x="708" y="610" type="line" smooth="yes"/>
      <point x="747" y="610"/>
      <point x="791" y="606"/>
      <point x="790" y="599" type="curve"/>
      <point x="448" y="371" type="line"/>
      <point x="442" y="352" type="line"/>
      <point x="589" y="111" type="line"/>
      <point x="586" y="104"/>
      <point x="566" y="101"/>
      <point x="531" y="101" type="curve" smooth="yes"/>
      <point x="523" y="101" type="line"/>
    </contour>
  </outline>
</glyph>
<glyph name="L" format="2">
  <advance width="867"/>
  <unicode hex="004C"/>
  <anchor x="503" y="741" name="top"/>
  <anchor x="608" y="710" name="right"/>
  <anchor x="610" y="410" name="mid"/>
  <anchor x="503" y="0" name="bottom"/>
  <outline>
    <contour>
      <point x="618" y="710" type="line"/>
      <point x="165" y="710" type="line"/>
      <point x="135" y="610" type="line"/>
      <point x="148" y="610" type="line" smooth="yes"/>
      <point x="184" y="610"/>
      <point x="209" y="603"/>
      <point x="200" y="574" type="curve" smooth="yes"/>
      <point x="64" y="137" type="line" smooth="yes"/>
      <point x="54" y="108"/>
      <point x="26" y="101"/>
      <point x="-9" y="101" type="curve" smooth="yes"/>
      <point x="-23" y="101" type="line"/>
      <point x="-53" y="0" type="line"/>
      <point x="728" y="0" type="line"/>
      <point x="809" y="282" type="line"/>
      <point x="679" y="282" type="line"/>
      <point x="615" y="143" type="line" smooth="yes"/>
      <point x="599" y="107"/>
      <point x="560" y="98"/>
      <point x="465" y="98" type="curve" smooth="yes"/>
      <point x="330" y="98" type="line"/>
      <point x="478" y="574" type="line" smooth="yes"/>
      <point x="486" y="603"/>
      <point x="515" y="610"/>
      <point x="563" y="610" type="curve" smooth="yes"/>
      <point x="588" y="610" type="line"/>
    </contour>
  </outline>
</glyph>
<glyph name="Y" format="2">
  <advance width="889"/>
  <unicode hex="0059"/>
  <anchor x="468" y="741" name="top"/>
  <anchor x="468" y="0" name="bottom"/>
  <outline>
    <contour>
      <point x="126" y="0" type="line"/>
      <point x="586" y="0" type="line"/>
      <point x="616" y="101" type="line"/>
      <point x="592" y="101" type="line" smooth="yes"/>
      <point x="557" y="101"/>
      <point x="527" y="108"/>
      <point x="536" y="137" type="curve" smooth="yes"/>
      <point x="582" y="279" type="line"/>
      <point x="538" y="226" type="line"/>
      <point x="857" y="544" type="line" smooth="yes"/>
      <point x="899" y="588"/>
      <point x="920" y="610"/>
      <point x="955" y="610" type="curve" smooth="yes"/>
      <point x="962" y="610" type="line"/>
      <point x="992" y="710" type="line"/>
      <point x="718" y="710" type="line"/>
      <point x="688" y="610" type="line"/>
      <point x="698" y="610" type="line" smooth="yes"/>
      <point x="751" y="610"/>
      <point x="768" y="600"/>
      <point x="764" y="587" type="curve"/>
      <point x="470" y="289" type="line"/>
      <point x="558" y="305" type="line"/>
      <point x="451" y="599" type="line"/>
      <point x="453" y="606"/>
      <point x="471" y="610"/>
      <point x="524" y="610" type="curve" smooth="yes"/>
      <point x="536" y="610" type="line"/>
      <point x="565" y="710" type="line"/>
      <point x="142" y="710" type="line"/>
      <point x="112" y="610" type="line"/>
      <point x="119" y="610" type="line" smooth="yes"/>
      <point x="158" y="610"/>
      <point x="166" y="586"/>
      <point x="183" y="543" type="curve" smooth="yes"/>
      <point x="308" y="237" type="line"/>
      <point x="304" y="279" type="line"/>
      <point x="257" y="137" type="line" smooth="yes"/>
      <point x="247" y="108"/>
      <point x="214" y="101"/>
      <point x="178" y="101" type="curve" smooth="yes"/>
      <point x="155" y="101" type="line"/>
    </contour>
  </outline>
</glyph>
<glyph name="Z" format="2">
  <advance width="846"/>
  <unicode hex="005A"/>
  <anchor x="443" y="741" name="top"/>
  <anchor x="443" y="0" name="bottom"/>
  <outline>
    <contour>
      <point x="166" y="99" type="line"/>
      <point x="197" y="50" type="line"/>
      <point x="855" y="541" type="line"/>
      <point x="903" y="710" type="line"/>
      <point x="180" y="710" type="line"/>
      <point x="105" y="462" type="line"/>
      <point x="235" y="462" type="line"/>
      <point x="280" y="568" type="line" smooth="yes"/>
      <point x="297" y="605"/>
      <point x="341" y="611"/>
      <point x="410" y="611" type="curve" smooth="yes"/>
      <point x="662" y="611" type="line"/>
      <point x="634" y="647" type="line"/>
      <point x="-5" y="173" type="line"/>
      <point x="-53" y="0" type="line"/>
      <point x="715" y="0" type="line"/>
      <point x="797" y="282" type="line"/>
      <point x="667" y="282" type="line"/>
      <point x="602" y="142" type="line" smooth="yes"/>
      <point x="585" y="106"/>
      <point x="547" y="99"/>
      <point x="452" y="99" type="curve" smooth="yes"/>
    </contour>
  </outline>
</glyph>
<glyph name="backslash" format="2">
  <advance width="648"/>
  <unicode hex="005C"/>
  <outline>
    <contour>
      <point x="159" y="780" type="line"/>
      <point x="12" y="780" type="line"/>
      <point x="473" y="-158" type="line"/>
      <point x="620" y="-158" type="line"/>
    </contour>
  </outline>
</glyph>
<glyph name="underscore" format="2">
  <advance width="672"/>
  <unicode hex="005F"/>
  <outline>
    <contour>
      <point x="-4" y="-95" type="line"/>
      <point x="-32" y="-199" type="line"/>
      <point x="677" y="-199" type="line"/>
      <point x="704" y="-95" type="line"/>
    </contour>
  </outline>
</glyph>
<glyph name="grave" format="2">
  <advance width="613"/>
  <unicode hex="0060"/>
  <anchor x="288" y="531" name="_top"/>
  <outline>
    <contour>
      <point x="497" y="797" type="curve" smooth="yes"/>
      <point x="547" y="675" type="line"/>
      <point x="537" y="630" type="line"/>
      <point x="471" y="630" type="line"/>
      <point x="341" y="695" type="line" smooth="yes"/>
      <point x="294" y="720"/>
      <point x="255" y="748"/>
      <point x="255" y="800" type="curve" smooth="yes"/>
      <point x="255" y="845"/>
      <point x="294" y="892"/>
      <point x="370" y="892" type="curve" smooth="yes"/>
      <point x="449" y="892"/>
      <point x="474" y="854"/>
    </contour>
  </outline>
</glyph>
<glyph name="j" format="2">
  <advance width="492"/>
  <unicode hex="006A"/>
  <outline>
    <contour>
      <point x="27" y="-45" type="line" smooth="yes"/>
      <point x="5" y="-116"/>
      <point x="-28" y="-143"/>
      <point x="-97" y="-143" type="curve" smooth="yes"/>
      <point x="-143" y="-143"/>
      <point x="-187" y="-129"/>
      <point x="-213" y="-120" type="curve"/>
      <point x="-243" y="-223" type="line"/>
      <point x="-222" y="-231"/>
      <point x="-157" y="-250"/>
      <point x="-42" y="-250" type="curve" smooth="yes"/>
      <point x="129" y="-250"/>
      <point x="244" y="-199"/>
      <point x="286" y="-59" type="curve" smooth="yes"/>
      <point x="480" y="572" type="line"/>
      <point x="142" y="572" type="line"/>
      <point x="112" y="471" type="line"/>
      <point x="126" y="469" type="line" smooth="yes"/>
      <point x="161" y="464"/>
      <point x="184" y="460"/>
      <point x="179" y="445" type="curve" smooth="yes"/>
    </contour>
    <contour>
      <point x="367" y="610" type="curve" smooth="yes"/>
      <point x="459" y="610"/>
      <point x="513" y="645"/>
      <point x="513" y="717" type="curve" smooth="yes"/>
      <point x="513" y="788"/>
      <point x="459" y="824"/>
      <point x="367" y="824" type="curve" smooth="yes"/>
      <point x="274" y="824"/>
      <point x="220" y="788"/>
      <point x="220" y="717" type="curve" smooth="yes"/>
      <point x="220" y="643"/>
      <point x="274" y="610"/>
    </contour>
  </outline>
</glyph>
<glyph name="k" format="2">
  <advance width="900"/>
  <unicode hex="006B"/>
  <anchor x="460" y="0" name="bottom"/>
  <outline>
    <contour>
      <point x="736" y="140" type="line" smooth="yes"/>
      <point x="744" y="123"/>
      <point x="754" y="118"/>
      <point x="787" y="118" type="curve" smooth="yes"/>
      <point x="806" y="118"/>
      <point x="826" y="118"/>
      <point x="845" y="118" type="curve"/>
      <point x="813" y="0" type="line"/>
      <point x="745" y="0"/>
      <point x="676" y="0"/>
      <point x="608" y="0" type="curve"/>
      <point x="534" y="0"/>
      <point x="513" y="10"/>
      <point x="491" y="59" type="curve"/>
      <point x="389" y="286" type="line"/>
      <point x="396" y="312" type="line"/>
      <point x="490" y="396"/>
      <point x="585" y="480"/>
      <point x="678" y="565" type="curve"/>
      <point x="944" y="565" type="line"/>
      <point x="944" y="550" type="line"/>
      <point x="809" y="480"/>
      <point x="674" y="410"/>
      <point x="540" y="340" type="curve"/>
      <point x="605" y="406" type="line"/>
    </contour>
    <contour>
      <point x="15" y="0" type="line"/>
      <point x="218" y="663" type="line" smooth="yes"/>
      <point x="221" y="672"/>
      <point x="201" y="677"/>
      <point x="167" y="683" type="curve" smooth="yes"/>
      <point x="158" y="685" type="line"/>
      <point x="186" y="780" type="line"/>
      <point x="517" y="780" type="line"/>
      <point x="279" y="0" type="line"/>
    </contour>
  </outline>
</glyph>
<glyph name="macron" format="2">
  <advance width="613"/>
  <unicode hex="00AF"/>
  <anchor x="308" y="526" name="_top"/>
  <outline>
    <contour>
      <point x="80" y="787" type="line"/>
      <point x="42" y="651" type="line"/>
      <point x="558" y="651" type="line"/>
      <point x="596" y="787" type="line"/>
    </contour>
  </outline>
</glyph>
<glyph name="paragraph" format="2">
  <advance width="811"/>
  <unicode hex="00B6"/>
  <outline>
    <contour>
      <point x="901" y="710" type="line"/>
      <point x="870" y="610" type="line"/>
      <point x="857" y="610" type="line" smooth="yes"/>
      <point x="822" y="610"/>
      <point x="793" y="603"/>
      <point x="784" y="574" type="curve" smooth="yes"/>
      <point x="606" y="0" type="line"/>
      <point x="457" y="0" type="line"/>
      <point x="675" y="710" type="line"/>
    </contour>
    <contour>
      <point x="700" y="710" type="line"/>
      <point x="672" y="615" type="line"/>
      <point x="442" y="615" type="line"/>
      <point x="469" y="710" type="line"/>
    </contour>
    <contour>
      <point x="359" y="0" type="line"/>
      <point x="209" y="0" type="line"/>
      <point x="298" y="281" type="line"/>
      <point x="295" y="281" type="line" smooth="yes"/>
      <point x="157" y="281"/>
      <point x="75" y="345"/>
      <point x="75" y="456" type="curve" smooth="yes"/>
      <point x="75" y="592"/>
      <point x="183" y="710"/>
      <point x="418" y="710" type="curve" smooth="yes"/>
      <point x="577" y="710" type="line"/>
    </contour>
  </outline>
</glyph>
<glyph name="ordmasculine" format="2">
  <advance width="797"/>
  <unicode hex="00BA"/>
  <outline>
    <contour>
      <point x="387" y="272" type="curve" smooth="yes"/>
      <point x="651" y="272"/>
      <point x="725" y="428"/>
      <point x="725" y="550" type="curve" smooth="yes"/>
      <point x="725" y="669"/>
      <point x="618" y="730"/>
      <point x="460" y="730" type="curve" smooth="yes"/>
      <point x="196" y="730"/>
      <point x="123" y="575"/>
      <point x="123" y="452" type="curve" smooth="yes"/>
      <point x="123" y="333"/>
      <point x="230" y="272"/>
    </contour>
    <contour>
      <point x="454" y="642" type="curve" smooth="yes"/>
      <point x="507" y="642"/>
      <point x="522" y="621"/>
      <point x="522" y="596" type="curve" smooth="yes"/>
      <point x="522" y="566"/>
      <point x="512" y="524"/>
      <point x="496" y="478" type="curve" smooth="yes"/>
      <point x="477" y="417"/>
      <point x="457" y="361"/>
      <point x="394" y="361" type="curve" smooth="yes"/>
      <point x="340" y="361"/>
      <point x="326" y="381"/>
      <point x="326" y="406" type="curve" smooth="yes"/>
      <point x="326" y="435"/>
      <point x="335" y="477"/>
      <point x="351" y="523" type="curve" smooth="yes"/>
      <point x="371" y="585"/>
      <point x="390" y="642"/>
    </contour>
  </outline>
</glyph>
<glyph name="icircumflex" format="2">
  <advance width="481"/>
  <unicode hex="00EE"/>
  <outline>
    <contour>
      <point x="456" y="870" type="line"/>
      <point x="565" y="671" type="line"/>
      <point x="549" y="618" type="line"/>
      <point x="474" y="618" type="line"/>
      <point x="304" y="727" type="line"/>
      <point x="365" y="729" type="line"/>
      <point x="135" y="618" type="line"/>
      <point x="42" y="618" type="line"/>
      <point x="58" y="671" type="line"/>
      <point x="284" y="870" type="line"/>
    </contour>
    <component base="dotlessi"/>
  </outline>
</glyph>
<glyph name="idieresis" format="2">
  <advance width="481"/>
  <unicode hex="00EF"/>
  <outline>
    <contour>
      <point x="146" y="610" type="curve" smooth="yes"/>
      <point x="238" y="610"/>
      <point x="292" y="645"/>
      <point x="292" y="717" type="curve" smooth="yes"/>
      <point x="292" y="788"/>
      <point x="238" y="824"/>
      <point x="146" y="824" type="curve" smooth="yes"/>
      <point x="53" y="824"/>
      <point x="-2" y="788"/>
      <point x="-2" y="717" type="curve" smooth="yes"/>
      <point x="-2" y="643"/>
      <point x="53" y="610"/>
    </contour>
    <contour>
      <point x="497" y="610" type="curve" smooth="yes"/>
      <point x="589" y="610"/>
      <point x="643" y="645"/>
      <point x="643" y="717" type="curve" smooth="yes"/>
      <point x="643" y="788"/>
      <point x="589" y="824"/>
      <point x="497" y="824" type="curve" smooth="yes"/>
      <point x="404" y="824"/>
      <point x="350" y="788"/>
      <point x="350" y="717" type="curve" smooth="yes"/>
      <point x="350" y="643"/>
      <point x="404" y="610"/>
    </contour>
    <component base="dotlessi"/>
  </outline>
</glyph>
<glyph name="thorn" format="2">
  <advance width="920"/>
  <unicode hex="00FE"/>
  <outline>
    <contour>
      <point x="-115" y="-223" type="line"/>
      <point x="303" y="-223" type="line"/>
      <point x="327" y="-139" type="line"/>
      <point x="319" y="-139" type="line" smooth="yes"/>
      <point x="268" y="-139"/>
      <point x="235" y="-137"/>
      <point x="238" y="-131" type="curve" smooth="yes"/>
      <point x="515" y="780" type="line"/>
      <point x="184" y="780" type="line"/>
      <point x="156" y="685" type="line"/>
      <point x="167" y="683" type="line" smooth="yes"/>
      <point x="200" y="677"/>
      <point x="222" y="672"/>
      <point x="218" y="663" type="curve"/>
      <point x="-9" y="-74" type="line"/>
      <point x="-25" y="-124"/>
      <point x="-48" y="-139"/>
      <point x="-87" y="-139" type="curve" smooth="yes"/>
      <point x="-91" y="-139" type="line"/>
    </contour>
    <contour>
      <point x="524" y="-12" type="curve" smooth="yes"/>
      <point x="751" y="-12"/>
      <point x="878" y="182"/>
      <point x="878" y="365" type="curve" smooth="yes"/>
      <point x="878" y="510"/>
      <point x="793" y="583"/>
      <point x="649" y="583" type="curve" smooth="yes"/>
      <point x="518" y="583"/>
      <point x="446" y="514"/>
      <point x="335" y="365" type="curve"/>
      <point x="330" y="322" type="line"/>
      <point x="437" y="418"/>
      <point x="484" y="453"/>
      <point x="544" y="453" type="curve" smooth="yes"/>
      <point x="590" y="453"/>
      <point x="615" y="431"/>
      <point x="615" y="385" type="curve" smooth="yes"/>
      <point x="615" y="291"/>
      <point x="558" y="118"/>
      <point x="450" y="118" type="curve" smooth="yes"/>
      <point x="377" y="118"/>
      <point x="343" y="173"/>
      <point x="307" y="242" type="curve"/>
      <point x="297" y="210" type="line"/>
      <point x="305" y="60"/>
      <point x="368" y="-12"/>
    </contour>
  </outline>
</glyph>
<glyph name="eogonek" format="2">
  <advance width="805"/>
  <unicode hex="0119"/>
  <outline>
    <contour>
      <point x="418" y="-252" type="curve" smooth="yes"/>
      <point x="520" y="-252"/>
      <point x="586" y="-228"/>
      <point x="636" y="-189" type="curve"/>
      <point x="593" y="-131" type="line"/>
      <point x="567" y="-147"/>
      <point x="530" y="-170"/>
      <point x="486" y="-170" type="curve" smooth="yes"/>
      <point x="448" y="-170"/>
      <point x="428" y="-158"/>
      <point x="428" y="-126" type="curve" smooth="yes"/>
      <point x="428" y="-49"/>
      <point x="555" y="-22"/>
      <point x="658" y="63" type="curve" smooth="yes"/>
      <point x="692" y="91"/>
      <point x="714" y="114"/>
      <point x="734" y="139" type="curve"/>
      <point x="640" y="206" type="line"/>
      <point x="597" y="160"/>
      <point x="541" y="104"/>
      <point x="445" y="104" type="curve" smooth="yes"/>
      <point x="346" y="104"/>
      <point x="297" y="135"/>
      <point x="297" y="233" type="curve" smooth="yes"/>
      <point x="297" y="367"/>
      <point x="359" y="478"/>
      <point x="476" y="478" type="curve" smooth="yes"/>
      <point x="527" y="478"/>
      <point x="547" y="457"/>
      <point x="547" y="417" type="curve" smooth="yes"/>
      <point x="547" y="318"/>
      <point x="435" y="303"/>
      <point x="237" y="298" type="curve"/>
      <point x="243" y="215" type="line"/>
      <point x="565" y="222"/>
      <point x="771" y="276"/>
      <point x="771" y="428" type="curve" smooth="yes"/>
      <point x="771" y="511"/>
      <point x="690" y="584"/>
      <point x="502" y="584" type="curve" smooth="yes"/>
      <point x="216" y="584"/>
      <point x="42" y="421"/>
      <point x="42" y="214" type="curve" smooth="yes"/>
      <point x="42" y="71"/>
      <point x="175" y="-15"/>
      <point x="389" y="-15" type="curve" smooth="yes"/>
      <point x="453" y="-15"/>
      <point x="507" y="-7"/>
      <point x="554" y="9" type="curve"/>
      <point x="535" y="21" type="line"/>
      <point x="263" y="-49"/>
      <point x="206" y="-76"/>
      <point x="206" y="-146" type="curve" smooth="yes"/>
      <point x="206" y="-222"/>
      <point x="279" y="-252"/>
    </contour>
  </outline>
</glyph>
<glyph name="imacron" format="2">
  <advance width="481"/>
  <unicode hex="012B"/>
  <outline>
    <contour>
      <point x="93" y="787" type="line"/>
      <point x="55" y="651" type="line"/>
      <point x="545" y="651" type="line"/>
      <point x="583" y="787" type="line"/>
    </contour>
    <component base="dotlessi"/>
  </outline>
</glyph>
<glyph name="lslash" format="2">
  <advance width="556"/>
  <unicode hex="0142"/>
  <outline>
    <contour>
      <point x="1" y="191" type="line"/>
      <point x="581" y="462" type="line"/>
      <point x="614" y="580" type="line"/>
      <point x="34" y="309" type="line"/>
    </contour>
    <component base="l" xOffset="29"/>
  </outline>
</glyph>
<glyph name="eng" format="2">
  <advance width="906"/>
  <unicode hex="014B"/>
  <outline>
    <contour>
      <point x="435" y="-45" type="line" smooth="yes"/>
      <point x="413" y="-116"/>
      <point x="380" y="-143"/>
      <point x="311" y="-143" type="curve" smooth="yes"/>
      <point x="265" y="-143"/>
      <point x="221" y="-129"/>
      <point x="195" y="-120" type="curve"/>
      <point x="164" y="-223" type="line"/>
      <point x="185" y="-231"/>
      <point x="253" y="-250"/>
      <point x="368" y="-250" type="curve" smooth="yes"/>
      <point x="539" y="-250"/>
      <point x="655" y="-199"/>
      <point x="697" y="-59" type="curve"/>
      <point x="837" y="397" type="line" smooth="yes"/>
      <point x="846" y="425"/>
      <point x="854" y="460"/>
      <point x="854" y="492" type="curve" smooth="yes"/>
      <point x="854" y="549"/>
      <point x="805" y="585"/>
      <point x="706" y="585" type="curve" smooth="yes"/>
      <point x="555" y="585"/>
      <point x="460" y="511"/>
      <point x="354" y="392" type="curve"/>
      <point x="343" y="305" type="line"/>
      <point x="427" y="391"/>
      <point x="485" y="449"/>
      <point x="545" y="449" type="curve" smooth="yes"/>
      <point x="571" y="449"/>
      <point x="580" y="441"/>
      <point x="580" y="428" type="curve" smooth="yes"/>
      <point x="580" y="415"/>
      <point x="575" y="397"/>
      <point x="568" y="376" type="curve" smooth="yes"/>
    </contour>
    <contour>
      <point x="279" y="0" type="line"/>
      <point x="399" y="396" type="line"/>
      <point x="395" y="416" type="line"/>
      <point x="407" y="572" type="line"/>
      <point x="122" y="572" type="line"/>
      <point x="94" y="476" type="line"/>
      <point x="103" y="474" type="line" smooth="yes"/>
      <point x="137" y="469"/>
      <point x="157" y="464"/>
      <point x="154" y="455" type="curve" smooth="yes"/>
      <point x="15" y="0" type="line"/>
    </contour>
  </outline>
</glyph>
<glyph name="OE" format="2">
  <advance width="1379"/>
  <unicode hex="0152"/>
  <outline>
    <contour>
      <point x="917" y="408" type="curve"/>
      <point x="892" y="322" type="line"/>
      <point x="990" y="313"/>
      <point x="1088" y="306"/>
      <point x="1187" y="298" type="curve"/>
      <point x="1226" y="433" type="line"/>
      <point x="1123" y="425"/>
      <point x="1020" y="417"/>
    </contour>
    <contour>
      <point x="1298" y="224" type="line"/>
      <point x="1167" y="224" type="line"/>
      <point x="1119" y="143" type="line" smooth="yes"/>
      <point x="1101" y="107"/>
      <point x="1064" y="98"/>
      <point x="970" y="98" type="curve" smooth="yes"/>
      <point x="839" y="98" type="line"/>
      <point x="1000" y="612" type="line"/>
      <point x="1124" y="612" type="line" smooth="yes"/>
      <point x="1193" y="612"/>
      <point x="1229" y="603"/>
      <point x="1227" y="567" type="curve" smooth="yes"/>
      <point x="1223" y="511" type="line"/>
      <point x="1351" y="511" type="line"/>
      <point x="1404" y="710" type="line"/>
      <point x="588" y="710" type="line" smooth="yes"/>
      <point x="242" y="710"/>
      <point x="54" y="513"/>
      <point x="54" y="294" type="curve" smooth="yes"/>
      <point x="54" y="99"/>
      <point x="214" y="0"/>
      <point x="472" y="0" type="curve" smooth="yes"/>
      <point x="1233" y="0" type="line"/>
    </contour>
    <contour>
      <point x="486" y="99" type="line" smooth="yes"/>
      <point x="379" y="99"/>
      <point x="336" y="149"/>
      <point x="336" y="249" type="curve" smooth="yes"/>
      <point x="336" y="381"/>
      <point x="415" y="611"/>
      <point x="618" y="611" type="curve" smooth="yes"/>
      <point x="721" y="611" type="line"/>
      <point x="560" y="99" type="line"/>
    </contour>
  </outline>
</glyph>
<glyph name="oe" format="2">
  <advance width="1308"/>
  <unicode hex="0153"/>
  <outline>
    <contour>
      <point x="799" y="233" type="curve" smooth="yes"/>
      <point x="799" y="367"/>
      <point x="862" y="478"/>
      <point x="979" y="478" type="curve" smooth="yes"/>
      <point x="1029" y="478"/>
      <point x="1049" y="457"/>
      <point x="1049" y="417" type="curve" smooth="yes"/>
      <point x="1049" y="318"/>
      <point x="937" y="303"/>
      <point x="739" y="298" type="curve"/>
      <point x="745" y="215" type="line"/>
      <point x="1068" y="222"/>
      <point x="1274" y="276"/>
      <point x="1274" y="428" type="curve" smooth="yes"/>
      <point x="1274" y="511"/>
      <point x="1193" y="584"/>
      <point x="1004" y="584" type="curve" smooth="yes"/>
      <point x="718" y="584"/>
      <point x="604" y="389"/>
      <point x="604" y="214" type="curve" smooth="yes"/>
      <point x="604" y="125"/>
      <point x="676" y="-15"/>
      <point x="891" y="-15" type="curve" smooth="yes"/>
      <point x="1059" y="-15"/>
      <point x="1162" y="44"/>
      <point x="1236" y="140" type="curve"/>
      <point x="1143" y="206" type="line"/>
      <point x="1100" y="160"/>
      <point x="1043" y="104"/>
      <point x="948" y="104" type="curve" smooth="yes"/>
      <point x="849" y="104"/>
      <point x="799" y="135"/>
    </contour>
    <contour>
      <point x="479" y="584" type="curve" smooth="yes"/>
      <point x="138" y="584"/>
      <point x="42" y="380"/>
      <point x="42" y="221" type="curve" smooth="yes"/>
      <point x="42" y="64"/>
      <point x="180" y="-15"/>
      <point x="385" y="-15" type="curve" smooth="yes"/>
      <point x="725" y="-15"/>
      <point x="762" y="243"/>
      <point x="762" y="348" type="curve" smooth="yes"/>
      <point x="762" y="472"/>
      <point x="683" y="584"/>
    </contour>
    <contour>
      <point x="537" y="254" type="curve" smooth="yes"/>
      <point x="508" y="168"/>
      <point x="482" y="91"/>
      <point x="391" y="91" type="curve" smooth="yes"/>
      <point x="314" y="91"/>
      <point x="293" y="119"/>
      <point x="293" y="152" type="curve" smooth="yes"/>
      <point x="293" y="194"/>
      <point x="306" y="252"/>
      <point x="327" y="315" type="curve" smooth="yes"/>
      <point x="355" y="401"/>
      <point x="381" y="478"/>
      <point x="472" y="478" type="curve" smooth="yes"/>
      <point x="549" y="478"/>
      <point x="570" y="450"/>
      <point x="570" y="417" type="curve" smooth="yes"/>
      <point x="570" y="375"/>
      <point x="558" y="317"/>
    </contour>
  </outline>
</glyph>
<glyph name="tbar" format="2">
  <advance width="617"/>
  <unicode hex="0167"/>
  <outline>
    <contour>
      <point x="606" y="358" type="line"/>
      <point x="40" y="358" type="line"/>
      <point x="10" y="261" type="line"/>
      <point x="577" y="261" type="line"/>
    </contour>
    <component base="t"/>
  </outline>
</glyph>
<glyph name="iinvertedbreve" format="2">
  <advance width="481"/>
  <unicode hex="020B"/>
  <outline>
    <contour>
      <point x="323" y="843" type="curve" smooth="yes"/>
      <point x="178" y="843"/>
      <point x="66" y="796"/>
      <point x="58" y="621" type="curve"/>
      <point x="185" y="621" type="line"/>
      <point x="205" y="686"/>
      <point x="226" y="696"/>
      <point x="319" y="696" type="curve" smooth="yes"/>
      <point x="402" y="696"/>
      <point x="414" y="679"/>
      <point x="409" y="621" type="curve"/>
      <point x="536" y="621" type="line"/>
      <point x="543" y="647"/>
      <point x="547" y="676"/>
      <point x="547" y="697" type="curve" smooth="yes"/>
      <point x="547" y="793"/>
      <point x="473" y="843"/>
    </contour>
    <component base="dotlessi"/>
  </outline>
</glyph>
<glyph name="hungarumlaut" format="2">
  <advance width="613"/>
  <unicode hex="02DD"/>
  <anchor x="314" y="525" name="_top"/>
  <outline>
    <contour>
      <point x="80" y="807" type="curve" smooth="yes"/>
      <point x="16" y="675" type="line"/>
      <point x="3" y="630" type="line"/>
      <point x="66" y="630" type="line"/>
      <point x="183" y="685" type="line" smooth="yes"/>
      <point x="263" y="726"/>
      <point x="307" y="754"/>
      <point x="307" y="812" type="curve" smooth="yes"/>
      <point x="307" y="853"/>
      <point x="270" y="892"/>
      <point x="203" y="892" type="curve" smooth="yes"/>
      <point x="138" y="892"/>
      <point x="104" y="858"/>
    </contour>
    <contour>
      <point x="374" y="807" type="curve" smooth="yes"/>
      <point x="310" y="675" type="line"/>
      <point x="297" y="630" type="line"/>
      <point x="360" y="630" type="line"/>
      <point x="477" y="685" type="line" smooth="yes"/>
      <point x="557" y="726"/>
      <point x="601" y="754"/>
      <point x="601" y="812" type="curve" smooth="yes"/>
      <point x="601" y="853"/>
      <point x="564" y="892"/>
      <point x="498" y="892" type="curve" smooth="yes"/>
      <point x="431" y="892"/>
      <point x="398" y="858"/>
    </contour>
  </outline>
</glyph>
<glyph name="Delta" format="2">
  <advance width="922"/>
  <unicode hex="0394"/>
  <outline>
    <contour>
      <point x="-49" y="0" type="line"/>
      <point x="779" y="0" type="line"/>
      <point x="830" y="175" type="line"/>
      <point x="686" y="710" type="line"/>
      <point x="482" y="710" type="line"/>
      <point x="2" y="175" type="line"/>
    </contour>
    <contour>
      <point x="581" y="124" type="line"/>
      <point x="756" y="181" type="line"/>
      <point x="40" y="181" type="line"/>
      <point x="87" y="117" type="line"/>
      <point x="580" y="671" type="line"/>
      <point x="465" y="609" type="line"/>
    </contour>
  </outline>
</glyph>
<glyph name="quoteright" format="2">
  <advance width="445"/>
  <unicode hex="2019"/>
  <outline>
    <contour>
      <point x="142" y="375" type="line"/>
      <point x="394" y="404"/>
      <point x="477" y="537"/>
      <point x="477" y="656" type="curve" smooth="yes"/>
      <point x="477" y="740"/>
      <point x="422" y="791"/>
      <point x="315" y="791" type="curve" smooth="yes"/>
      <point x="225" y="791"/>
      <point x="172" y="749"/>
      <point x="172" y="685" type="curve" smooth="yes"/>
      <point x="172" y="631"/>
      <point x="222" y="600"/>
      <point x="289" y="600" type="curve" smooth="yes"/>
      <point x="317" y="600"/>
      <point x="342" y="605"/>
      <point x="364" y="616" type="curve"/>
      <point x="348" y="636" type="line"/>
      <point x="343" y="524"/>
      <point x="252" y="503"/>
      <point x="88" y="482" type="curve"/>
    </contour>
  </outline>
</glyph>
<glyph name="dagger" format="2">
  <advance width="803"/>
  <unicode hex="2020"/>
  <outline>
    <contour>
      <point x="400" y="459" type="line"/>
      <point x="490" y="459" type="line"/>
      <point x="708" y="369" type="line"/>
      <point x="773" y="369" type="line"/>
      <point x="833" y="574" type="line"/>
      <point x="768" y="574" type="line"/>
      <point x="498" y="495" type="line"/>
      <point x="411" y="495" type="line"/>
      <point x="184" y="574" type="line"/>
      <point x="118" y="574" type="line"/>
      <point x="58" y="369" type="line"/>
      <point x="124" y="369" type="line"/>
    </contour>
    <contour>
      <point x="715" y="710" type="line"/>
      <point x="321" y="710" type="line"/>
      <point x="307" y="665" type="line" smooth="yes"/>
      <point x="295" y="625"/>
      <point x="427" y="566"/>
      <point x="402" y="475" type="curve" smooth="yes"/>
      <point x="372" y="361"/>
      <point x="228" y="316"/>
      <point x="202" y="302" type="curve"/>
      <point x="194" y="278" type="line" smooth="yes"/>
      <point x="180" y="237"/>
      <point x="248" y="154"/>
      <point x="230" y="-67" type="curve"/>
      <point x="339" y="-67" type="line"/>
      <point x="455" y="157"/>
      <point x="567" y="237"/>
      <point x="581" y="278" type="curve" smooth="yes"/>
      <point x="590" y="302" type="line"/>
      <point x="571" y="316"/>
      <point x="460" y="351"/>
      <point x="491" y="470" type="curve" smooth="yes"/>
      <point x="516" y="561"/>
      <point x="688" y="625"/>
      <point x="701" y="665" type="curve" smooth="yes"/>
    </contour>
  </outline>
</glyph>
<glyph name="perthousand" format="2">
  <advance width="1409"/>
  <unicode hex="2030"/>
  <outline>
    <contour>
      <point x="234" y="348" type="curve" smooth="yes"/>
      <point x="405" y="348"/>
      <point x="485" y="495"/>
      <point x="485" y="612" type="curve" smooth="yes"/>
      <point x="485" y="701"/>
      <point x="421" y="753"/>
      <point x="307" y="753" type="curve" smooth="yes"/>
      <point x="136" y="753"/>
      <point x="56" y="607"/>
      <point x="56" y="489" type="curve" smooth="yes"/>
      <point x="56" y="400"/>
      <point x="120" y="348"/>
    </contour>
    <contour>
      <point x="236" y="427" type="curve" smooth="yes"/>
      <point x="211" y="427"/>
      <point x="203" y="440"/>
      <point x="203" y="462" type="curve" smooth="yes"/>
      <point x="203" y="514"/>
      <point x="242" y="674"/>
      <point x="304" y="674" type="curve" smooth="yes"/>
      <point x="330" y="674"/>
      <point x="338" y="661"/>
      <point x="338" y="639" type="curve" smooth="yes"/>
      <point x="338" y="587"/>
      <point x="299" y="427"/>
    </contour>
    <contour>
      <point x="636" y="-27" type="curve" smooth="yes"/>
      <point x="522" y="-27"/>
      <point x="458" y="26"/>
      <point x="458" y="114" type="curve" smooth="yes"/>
      <point x="458" y="233"/>
      <point x="538" y="379"/>
      <point x="709" y="379" type="curve" smooth="yes"/>
      <point x="823" y="379"/>
      <point x="887" y="326"/>
      <point x="887" y="237" type="curve" smooth="yes"/>
      <point x="887" y="120"/>
      <point x="807" y="-27"/>
    </contour>
    <contour>
      <point x="638" y="53" type="curve" smooth="yes"/>
      <point x="701" y="53"/>
      <point x="740" y="213"/>
      <point x="740" y="264" type="curve" smooth="yes"/>
      <point x="740" y="287"/>
      <point x="732" y="299"/>
      <point x="706" y="299" type="curve" smooth="yes"/>
      <point x="643" y="299"/>
      <point x="605" y="139"/>
      <point x="605" y="88" type="curve" smooth="yes"/>
      <point x="605" y="65"/>
      <point x="613" y="53"/>
    </contour>
    <contour>
      <point x="1107" y="-27" type="curve" smooth="yes"/>
      <point x="993" y="-27"/>
      <point x="929" y="26"/>
      <point x="929" y="114" type="curve" smooth="yes"/>
      <point x="929" y="233"/>
      <point x="1009" y="379"/>
      <point x="1181" y="379" type="curve" smooth="yes"/>
      <point x="1295" y="379"/>
      <point x="1359" y="326"/>
      <point x="1359" y="237" type="curve" smooth="yes"/>
      <point x="1359" y="120"/>
      <point x="1278" y="-27"/>
    </contour>
    <contour>
      <point x="1109" y="53" type="curve" smooth="yes"/>
      <point x="1172" y="53"/>
      <point x="1211" y="213"/>
      <point x="1211" y="264" type="curve" smooth="yes"/>
      <point x="1211" y="287"/>
      <point x="1203" y="299"/>
      <point x="1178" y="299" type="curve" smooth="yes"/>
      <point x="1115" y="299"/>
      <point x="1077" y="139"/>
      <point x="1077" y="88" type="curve" smooth="yes"/>
      <point x="1077" y="65"/>
      <point x="1084" y="53"/>
    </contour>
    <component base="fraction" xOffset="376"/>
  </outline>
</glyph>
<glyph name="franc" format="2">
  <advance width="680"/>
  <unicode hex="20A3"/>
  <outline>
    <contour>
      <point x="-52" y="0" type="line"/>
      <point x="370" y="0" type="line"/>
      <point x="400" y="101" type="line"/>
      <point x="376" y="101" type="line" smooth="yes"/>
      <point x="334" y="101"/>
      <point x="297" y="104"/>
      <point x="300" y="111" type="curve" smooth="yes"/>
      <point x="457" y="612" type="line"/>
      <point x="505" y="612" type="line" smooth="yes"/>
      <point x="574" y="612"/>
      <point x="602" y="606"/>
      <point x="603" y="569" type="curve" smooth="yes"/>
      <point x="606" y="527" type="line"/>
      <point x="734" y="527" type="line"/>
      <point x="788" y="710" type="line"/>
      <point x="167" y="710" type="line"/>
      <point x="136" y="610" type="line"/>
      <point x="150" y="610" type="line" smooth="yes"/>
      <point x="186" y="610"/>
      <point x="210" y="603"/>
      <point x="201" y="574" type="curve" smooth="yes"/>
      <point x="65" y="137" type="line" smooth="yes"/>
      <point x="55" y="108"/>
      <point x="28" y="101"/>
      <point x="-8" y="101" type="curve" smooth="yes"/>
      <point x="-21" y="101" type="line"/>
    </contour>
    <contour>
      <point x="383" y="437" type="curve"/>
      <point x="361" y="361" type="line"/>
      <point x="433" y="353"/>
      <point x="505" y="347"/>
      <point x="578" y="340" type="curve"/>
      <point x="612" y="459" type="line"/>
      <point x="536" y="452"/>
      <point x="459" y="445"/>
    </contour>
    <contour>
      <point x="33" y="274" type="line"/>
      <point x="9" y="192" type="line"/>
      <point x="483" y="192" type="line"/>
      <point x="507" y="274" type="line"/>
    </contour>
  </outline>
</glyph>
<glyph name="dong" format="2">
  <advance width="680"/>
  <unicode hex="20AB"/>
  <outline>
    <contour>
      <point x="155" y="-12" type="curve" smooth="yes"/>
      <point x="263" y="-12"/>
      <point x="324" y="57"/>
      <point x="431" y="206" type="curve"/>
      <point x="418" y="249" type="line"/>
      <point x="348" y="153"/>
      <point x="315" y="118"/>
      <point x="278" y="118" type="curve" smooth="yes"/>
      <point x="247" y="118"/>
      <point x="239" y="136"/>
      <point x="239" y="170" type="curve" smooth="yes"/>
      <point x="239" y="210"/>
      <point x="255" y="280"/>
      <point x="278" y="342" type="curve" smooth="yes"/>
      <point x="303" y="403"/>
      <point x="336" y="453"/>
      <point x="374" y="453" type="curve" smooth="yes"/>
      <point x="425" y="453"/>
      <point x="427" y="398"/>
      <point x="436" y="329" type="curve"/>
      <point x="451" y="361" type="line"/>
      <point x="452" y="511"/>
      <point x="430" y="583"/>
      <point x="308" y="583" type="curve" smooth="yes"/>
      <point x="115" y="583"/>
      <point x="2" y="357"/>
      <point x="2" y="152" type="curve" smooth="yes"/>
      <point x="2" y="51"/>
      <point x="37" y="-12"/>
    </contour>
    <contour>
      <point x="490" y="0" type="curve" smooth="yes"/>
      <point x="527" y="0"/>
      <point x="565" y="0"/>
      <point x="603" y="0" type="curve"/>
      <point x="633" y="118" type="line"/>
      <point x="624" y="118"/>
      <point x="615" y="118"/>
      <point x="605" y="118" type="curve" smooth="yes"/>
      <point x="581" y="118"/>
      <point x="569" y="125"/>
      <point x="569" y="143" type="curve" smooth="yes"/>
      <point x="569" y="157"/>
      <point x="580" y="182"/>
      <point x="603" y="252" type="curve" smooth="yes"/>
      <point x="765" y="780" type="line"/>
      <point x="535" y="780" type="line"/>
      <point x="332" y="114" type="line"/>
      <point x="355" y="138" type="line"/>
      <point x="354" y="115"/>
      <point x="354" y="108"/>
      <point x="354" y="97" type="curve" smooth="yes"/>
      <point x="354" y="35"/>
      <point x="404" y="0"/>
    </contour>
    <contour>
      <point x="-24" y="-180" type="line"/>
      <point x="563" y="-180" type="line"/>
      <point x="591" y="-87" type="line"/>
      <point x="4" y="-87" type="line"/>
    </contour>
    <contour>
      <point x="287" y="631" type="line"/>
      <point x="779" y="631" type="line"/>
      <point x="804" y="718" type="line"/>
      <point x="312" y="718" type="line"/>
    </contour>
  </outline>
</glyph>
<glyph name="kip" format="2">
  <advance width="680"/>
  <unicode hex="20AD"/>
  <outline>
    <contour>
      <point x="42" y="422" type="line"/>
      <point x="14" y="327" type="line"/>
      <point x="646" y="327" type="line"/>
      <point x="674" y="422" type="line"/>
    </contour>
    <contour>
      <point x="-80" y="0" type="line"/>
      <point x="216" y="0" type="line"/>
      <point x="244" y="95" type="line"/>
      <point x="242" y="95" type="line" smooth="yes"/>
      <point x="223" y="95"/>
      <point x="213" y="98"/>
      <point x="216" y="105" type="curve" smooth="yes"/>
      <point x="372" y="605" type="line" smooth="yes"/>
      <point x="374" y="612"/>
      <point x="385" y="615"/>
      <point x="414" y="615" type="curve" smooth="yes"/>
      <point x="419" y="615" type="line"/>
      <point x="446" y="710" type="line"/>
      <point x="138" y="710" type="line"/>
      <point x="111" y="615" type="line"/>
      <point x="118" y="615" type="line" smooth="yes"/>
      <point x="156" y="615"/>
      <point x="163" y="608"/>
      <point x="154" y="579" type="curve" smooth="yes"/>
      <point x="14" y="131" type="line" smooth="yes"/>
      <point x="6" y="102"/>
      <point x="-7" y="95"/>
      <point x="-44" y="95" type="curve" smooth="yes"/>
      <point x="-52" y="95" type="line"/>
    </contour>
    <contour>
      <point x="293" y="0" type="line"/>
      <point x="582" y="0" type="line"/>
      <point x="610" y="95" type="line"/>
      <point x="600" y="95" type="line" smooth="yes"/>
      <point x="574" y="95"/>
      <point x="568" y="100"/>
      <point x="561" y="128" type="curve" smooth="yes"/>
      <point x="488" y="414" type="line"/>
      <point x="416" y="345" type="line"/>
      <point x="669" y="586" type="line" smooth="yes"/>
      <point x="696" y="612"/>
      <point x="708" y="615"/>
      <point x="738" y="615" type="curve" smooth="yes"/>
      <point x="746" y="615" type="line"/>
      <point x="774" y="710" type="line"/>
      <point x="520" y="710" type="line"/>
      <point x="493" y="615" type="line"/>
      <point x="500" y="615" type="line" smooth="yes"/>
      <point x="533" y="615"/>
      <point x="541" y="612"/>
      <point x="538" y="605" type="curve"/>
      <point x="293" y="370" type="line"/>
      <point x="302" y="360" type="line"/>
      <point x="357" y="105" type="line"/>
      <point x="355" y="98"/>
      <point x="353" y="95"/>
      <point x="328" y="95" type="curve" smooth="yes"/>
      <point x="321" y="95" type="line"/>
    </contour>
  </outline>
</glyph>
<glyph name="uni20B4" format="2">
  <advance width="685"/>
  <unicode hex="20B4"/>
  <outline>
    <contour>
      <point x="-6" y="235" type="line"/>
      <point x="624" y="235" type="line"/>
      <point x="653" y="332" type="line"/>
      <point x="23" y="332" type="line"/>
    </contour>
    <contour>
      <point x="46" y="402" type="line"/>
      <point x="675" y="402" type="line"/>
      <point x="703" y="499" type="line"/>
      <point x="74" y="499" type="line"/>
    </contour>
    <contour>
      <point x="310" y="-10" type="curve" smooth="yes"/>
      <point x="441" y="-10"/>
      <point x="523" y="14"/>
      <point x="560" y="28" type="curve"/>
      <point x="599" y="175" type="line"/>
      <point x="422" y="175" type="line"/>
      <point x="389" y="64" type="line"/>
      <point x="419" y="47"/>
      <point x="485" y="93"/>
      <point x="485" y="111" type="curve"/>
      <point x="445" y="90"/>
      <point x="405" y="73"/>
      <point x="349" y="73" type="curve" smooth="yes"/>
      <point x="282" y="73"/>
      <point x="257" y="88"/>
      <point x="257" y="130" type="curve" smooth="yes"/>
      <point x="257" y="188"/>
      <point x="298" y="242"/>
      <point x="381" y="277" type="curve"/>
      <point x="167" y="280" type="line"/>
      <point x="80" y="255"/>
      <point x="30" y="197"/>
      <point x="30" y="136" type="curve" smooth="yes"/>
      <point x="30" y="39"/>
      <point x="129" y="-10"/>
    </contour>
    <contour>
      <point x="525" y="450" type="line"/>
      <point x="621" y="477"/>
      <point x="689" y="528"/>
      <point x="689" y="606" type="curve" smooth="yes"/>
      <point x="689" y="690"/>
      <point x="609" y="730"/>
      <point x="442" y="730" type="curve" smooth="yes"/>
      <point x="325" y="730"/>
      <point x="243" y="696"/>
      <point x="201" y="674" type="curve"/>
      <point x="166" y="558" type="line"/>
      <point x="341" y="558" type="line"/>
      <point x="375" y="672" type="line"/>
      <point x="343" y="669"/>
      <point x="289" y="625"/>
      <point x="289" y="612" type="curve"/>
      <point x="319" y="631"/>
      <point x="355" y="648"/>
      <point x="405" y="648" type="curve" smooth="yes"/>
      <point x="452" y="648"/>
      <point x="470" y="639"/>
      <point x="470" y="605" type="curve" smooth="yes"/>
      <point x="470" y="553"/>
      <point x="428" y="505"/>
      <point x="339" y="469" type="curve"/>
    </contour>
  </outline>
</glyph>
<glyph name="ruble" format="2">
  <advance width="680"/>
  <unicode hex="20BD"/>
  <outline>
    <contour>
      <point x="443" y="167" type="line"/>
      <point x="-34" y="167" type="line"/>
      <point x="-10" y="245" type="line"/>
      <point x="466" y="245" type="line"/>
    </contour>
    <contour>
      <point x="42" y="415" type="line"/>
      <point x="356" y="415" type="line" smooth="yes"/>
      <point x="440" y="415"/>
      <point x="475" y="423"/>
      <point x="499" y="505" type="curve" smooth="yes"/>
      <point x="506" y="529"/>
      <point x="510" y="548"/>
      <point x="510" y="566" type="curve" smooth="yes"/>
      <point x="510" y="603"/>
      <point x="486" y="619"/>
      <point x="427" y="619" type="curve" smooth="yes"/>
      <point x="410" y="619" type="line"/>
      <point x="250" y="105" type="line" smooth="yes"/>
      <point x="247" y="98"/>
      <point x="264" y="95"/>
      <point x="305" y="95" type="curve" smooth="yes"/>
      <point x="315" y="95" type="line"/>
      <point x="287" y="0" type="line"/>
      <point x="-69" y="0" type="line"/>
      <point x="-41" y="95" type="line"/>
      <point x="-32" y="95" type="line" smooth="yes"/>
      <point x="1" y="95"/>
      <point x="33" y="102"/>
      <point x="42" y="131" type="curve" smooth="yes"/>
      <point x="183" y="579" type="line" smooth="yes"/>
      <point x="191" y="608"/>
      <point x="163" y="615"/>
      <point x="130" y="615" type="curve" smooth="yes"/>
      <point x="121" y="615" type="line"/>
      <point x="149" y="710" type="line"/>
      <point x="456" y="710" type="line" smooth="yes"/>
      <point x="635" y="710"/>
      <point x="728" y="650"/>
      <point x="728" y="549" type="curve" smooth="yes"/>
      <point x="728" y="416"/>
      <point x="625" y="328"/>
      <point x="392" y="328" type="curve" smooth="yes"/>
      <point x="17" y="328" type="line"/>
    </contour>
  </outline>
</glyph>
<glyph name="arrowleft" format="2">
  <advance width="1029"/>
  <unicode hex="2190"/>
  <outline>
    <contour>
      <point x="593" y="614" type="line"/>
      <point x="79" y="373" type="line"/>
      <point x="79" y="333" type="line"/>
      <point x="593" y="92" type="line"/>
      <point x="629" y="135" type="line"/>
      <point x="396" y="305" type="line"/>
      <point x="949" y="305" type="line"/>
      <point x="949" y="401" type="line"/>
      <point x="396" y="401" type="line"/>
      <point x="628" y="572" type="line"/>
    </contour>
  </outline>
</glyph>
<glyph name="minus" format="2">
  <advance width="680"/>
  <unicode hex="2212"/>
  <outline>
    <contour>
      <point x="656" y="406" type="line"/>
      <point x="69" y="406" type="line"/>
      <point x="26" y="254" type="line"/>
      <point x="613" y="254" type="line"/>
    </contour>
  </outline>
</glyph>
<glyph name="approxequal" format="2">
  <advance width="680"/>
  <unicode hex="2248"/>
  <outline>
    <contour>
      <point x="432" y="210" type="curve" smooth="yes"/>
      <point x="373" y="210"/>
      <point x="366" y="326"/>
      <point x="221" y="326" type="curve" smooth="yes"/>
      <point x="95" y="326"/>
      <point x="48" y="257"/>
      <point x="-3" y="104" type="curve"/>
      <point x="113" y="81" type="line"/>
      <point x="142" y="165"/>
      <point x="160" y="199"/>
      <point x="206" y="199" type="curve" smooth="yes"/>
      <point x="261" y="199"/>
      <point x="276" y="81"/>
      <point x="418" y="81" type="curve" smooth="yes"/>
      <point x="537" y="81"/>
      <point x="589" y="143"/>
      <point x="635" y="303" type="curve"/>
      <point x="520" y="325" type="line"/>
      <point x="493" y="244"/>
      <point x="468" y="210"/>
    </contour>
    <contour>
      <point x="490" y="485" type="curve" smooth="yes"/>
      <point x="431" y="485"/>
      <point x="425" y="601"/>
      <point x="279" y="601" type="curve" smooth="yes"/>
      <point x="154" y="601"/>
      <point x="106" y="532"/>
      <point x="56" y="380" type="curve"/>
      <point x="171" y="356" type="line"/>
      <point x="200" y="440"/>
      <point x="224" y="475"/>
      <point x="265" y="475" type="curve" smooth="yes"/>
      <point x="319" y="475"/>
      <point x="334" y="357"/>
      <point x="476" y="357" type="curve" smooth="yes"/>
      <point x="595" y="357"/>
      <point x="647" y="418"/>
      <point x="694" y="578" type="curve"/>
      <point x="578" y="601" type="line"/>
      <point x="551" y="519"/>
      <point x="526" y="485"/>
    </contour>
  </outline>
</glyph>
<glyph name="notequal" format="2">
  <advance width="680"/>
  <unicode hex="2260"/>
  <outline>
    <contour>
      <point x="564" y="639" type="line"/>
      <point x="-11" y="-1" type="line"/>
      <point x="122" y="-1" type="line"/>
      <point x="697" y="639" type="line"/>
    </contour>
    <component base="equal"/>
  </outline>
</glyph>
<glyph name="lozenge" format="2">
  <advance width="867"/>
  <unicode hex="25CA"/>
  <outline>
    <contour>
      <point x="368" y="78" type="line"/>
      <point x="173" y="368" type="line"/>
      <point x="167" y="339" type="line"/>
      <point x="547" y="633" type="line"/>
      <point x="500" y="633" type="line"/>
      <point x="696" y="339" type="line"/>
      <point x="697" y="372" type="line"/>
      <point x="321" y="82" type="line"/>
    </contour>
    <contour>
      <point x="274" y="0" type="line"/>
      <point x="375" y="0" type="line"/>
      <point x="784" y="322" type="line"/>
      <point x="804" y="388" type="line"/>
      <point x="593" y="710" type="line"/>
      <point x="493" y="710" type="line"/>
      <point x="83" y="388" type="line"/>
      <point x="64" y="322" type="line"/>
    </contour>
  </outline>
</glyph>
<glyph name="three.den" format="2">
  <advance width="591"/>
  <unicode hex="E405"/>
  <outline>
    <contour>
      <point x="286" y="371" type="curve" smooth="yes"/>
      <point x="250" y="371"/>
      <point x="204" y="360"/>
      <point x="179" y="351" type="curve"/>
      <point x="189" y="372"/>
      <point x="225" y="380"/>
      <point x="245" y="383" type="curve"/>
      <point x="223" y="306" type="line"/>
      <point x="90" y="306" type="line"/>
      <point x="119" y="401" type="line"/>
      <point x="165" y="417"/>
      <point x="234" y="431"/>
      <point x="299" y="431" type="curve" smooth="yes"/>
      <point x="445" y="431"/>
      <point x="514" y="403"/>
      <point x="514" y="329" type="curve" smooth="yes"/>
      <point x="514" y="243"/>
      <point x="428" y="225"/>
      <point x="300" y="217" type="curve"/>
      <point x="249" y="223" type="line"/>
      <point x="425" y="218"/>
      <point x="494" y="178"/>
      <point x="494" y="120" type="curve" smooth="yes"/>
      <point x="494" y="32"/>
      <point x="404" y="-6"/>
      <point x="237" y="-6" type="curve" smooth="yes"/>
      <point x="74" y="-6"/>
      <point x="16" y="39"/>
      <point x="-11" y="109" type="curve"/>
      <point x="71" y="136" type="line"/>
      <point x="88" y="100"/>
      <point x="116" y="57"/>
      <point x="209" y="57" type="curve" smooth="yes"/>
      <point x="283" y="57"/>
      <point x="304" y="95"/>
      <point x="304" y="139" type="curve" smooth="yes"/>
      <point x="304" y="176"/>
      <point x="278" y="191"/>
      <point x="215" y="191" type="curve" smooth="yes"/>
      <point x="166" y="191" type="line"/>
      <point x="185" y="252" type="line"/>
      <point x="246" y="252" type="line" smooth="yes"/>
      <point x="320" y="252"/>
      <point x="351" y="279"/>
      <point x="351" y="327" type="curve" smooth="yes"/>
      <point x="351" y="361"/>
      <point x="325" y="371"/>
    </contour>
  </outline>
</glyph>
<glyph name="eight.den" format="2">
  <advance width="597"/>
  <unicode hex="E40A"/>
  <outline>
    <contour>
      <point x="251" y="-6" type="curve" smooth="yes"/>
      <point x="455" y="-6"/>
      <point x="519" y="48"/>
      <point x="519" y="131" type="curve" smooth="yes"/>
      <point x="519" y="220"/>
      <point x="384" y="233"/>
      <point x="237" y="233" type="curve"/>
      <point x="77" y="233"/>
      <point x="-10" y="204"/>
      <point x="-10" y="113" type="curve" smooth="yes"/>
      <point x="-10" y="17"/>
      <point x="111" y="-6"/>
    </contour>
    <contour>
      <point x="304" y="224" type="curve"/>
      <point x="491" y="224"/>
      <point x="547" y="251"/>
      <point x="547" y="333" type="curve"/>
      <point x="547" y="392"/>
      <point x="495" y="432"/>
      <point x="308" y="432" type="curve" smooth="yes"/>
      <point x="127" y="432"/>
      <point x="65" y="386"/>
      <point x="65" y="316" type="curve"/>
      <point x="65" y="245"/>
      <point x="155" y="224"/>
    </contour>
    <contour>
      <point x="295" y="250" type="curve" smooth="yes"/>
      <point x="261" y="250"/>
      <point x="245" y="258"/>
      <point x="245" y="280" type="curve" smooth="yes"/>
      <point x="245" y="296"/>
      <point x="248" y="308"/>
      <point x="251" y="322" type="curve" smooth="yes"/>
      <point x="262" y="362"/>
      <point x="282" y="371"/>
      <point x="318" y="371" type="curve" smooth="yes"/>
      <point x="350" y="371"/>
      <point x="367" y="363"/>
      <point x="367" y="340" type="curve" smooth="yes"/>
      <point x="367" y="324"/>
      <point x="364" y="313"/>
      <point x="361" y="298" type="curve" smooth="yes"/>
      <point x="350" y="258"/>
      <point x="330" y="250"/>
    </contour>
    <contour>
      <point x="270" y="202" type="curve" smooth="yes"/>
      <point x="315" y="202"/>
      <point x="329" y="188"/>
      <point x="329" y="167" type="curve" smooth="yes"/>
      <point x="329" y="148"/>
      <point x="325" y="134"/>
      <point x="322" y="119" type="curve" smooth="yes"/>
      <point x="310" y="74"/>
      <point x="290" y="56"/>
      <point x="239" y="56" type="curve" smooth="yes"/>
      <point x="194" y="56"/>
      <point x="180" y="69"/>
      <point x="180" y="90" type="curve" smooth="yes"/>
      <point x="180" y="109"/>
      <point x="184" y="122"/>
      <point x="187" y="138" type="curve" smooth="yes"/>
      <point x="199" y="183"/>
      <point x="218" y="202"/>
    </contour>
  </outline>
</glyph>
<glyph name="nine.den" format="2">
  <advance width="593"/>
  <unicode hex="E40B"/>
  <outline>
    <contour>
      <point x="311" y="431" type="curve" smooth="yes"/>
      <point x="468" y="431"/>
      <point x="534" y="377"/>
      <point x="534" y="261" type="curve" smooth="yes"/>
      <point x="534" y="113"/>
      <point x="409" y="-17"/>
      <point x="46" y="-22" type="curve"/>
      <point x="43" y="54" type="line"/>
      <point x="286" y="68"/>
      <point x="362" y="138"/>
      <point x="362" y="300" type="curve" smooth="yes"/>
      <point x="362" y="349"/>
      <point x="344" y="368"/>
      <point x="306" y="368" type="curve" smooth="yes"/>
      <point x="248" y="368"/>
      <point x="222" y="306"/>
      <point x="222" y="258" type="curve" smooth="yes"/>
      <point x="222" y="229"/>
      <point x="237" y="209"/>
      <point x="267" y="209" type="curve" smooth="yes"/>
      <point x="310" y="209"/>
      <point x="349" y="250"/>
      <point x="382" y="294" type="curve"/>
      <point x="370" y="247" type="line"/>
      <point x="337" y="192"/>
      <point x="273" y="140"/>
      <point x="179" y="140" type="curve" smooth="yes"/>
      <point x="84" y="140"/>
      <point x="40" y="191"/>
      <point x="40" y="250" type="curve" smooth="yes"/>
      <point x="40" y="364"/>
      <point x="157" y="431"/>
    </contour>
  </outline>
</glyph>
<glyph name="E.alt" format="2">
  <advance width="877"/>
  <outline>
    <contour>
      <point x="794" y="226" type="line"/>
      <point x="664" y="226" type="line"/>
      <point x="617" y="143" type="line" smooth="yes"/>
      <point x="597" y="107"/>
      <point x="562" y="98"/>
      <point x="467" y="98" type="curve" smooth="yes"/>
      <point x="330" y="98" type="line"/>
      <point x="491" y="612" type="line"/>
      <point x="622" y="612" type="line" smooth="yes"/>
      <point x="691" y="612"/>
      <point x="727" y="603"/>
      <point x="724" y="567" type="curve" smooth="yes"/>
      <point x="720" y="509" type="line"/>
      <point x="848" y="509" type="line"/>
      <point x="901" y="710" type="line"/>
      <point x="165" y="710" type="line"/>
      <point x="135" y="610" type="line"/>
      <point x="148" y="610" type="line" smooth="yes"/>
      <point x="184" y="610"/>
      <point x="209" y="603"/>
      <point x="200" y="574" type="curve" smooth="yes"/>
      <point x="64" y="137" type="line" smooth="yes"/>
      <point x="54" y="108"/>
      <point x="26" y="101"/>
      <point x="-9" y="101" type="curve" smooth="yes"/>
      <point x="-23" y="101" type="line"/>
      <point x="-53" y="0" type="line"/>
      <point x="729" y="0" type="line"/>
    </contour>
    <contour>
      <point x="306" y="416" type="line"/>
      <point x="278" y="323" type="line"/>
      <point x="480" y="323" type="line" smooth="yes"/>
      <point x="515" y="323"/>
      <point x="520" y="298"/>
      <point x="513" y="275" type="curve" smooth="yes"/>
      <point x="508" y="260" type="line"/>
      <point x="619" y="260" type="line"/>
      <point x="685" y="478" type="line"/>
      <point x="574" y="478" type="line"/>
      <point x="571" y="465" type="line" smooth="yes"/>
      <point x="563" y="441"/>
      <point x="543" y="416"/>
      <point x="507" y="416" type="curve" smooth="yes"/>
    </contour>
  </outline>
</glyph>
<glyph name="F.alt" format="2">
  <advance width="834"/>
  <outline>
    <contour>
      <point x="491" y="612" type="line"/>
      <point x="619" y="612" type="line" smooth="yes"/>
      <point x="688" y="612"/>
      <point x="724" y="603"/>
      <point x="721" y="567" type="curve" smooth="yes"/>
      <point x="717" y="511" type="line"/>
      <point x="846" y="511" type="line"/>
      <point x="898" y="710" type="line"/>
      <point x="165" y="710" type="line"/>
      <point x="135" y="610" type="line"/>
      <point x="149" y="610" type="line" smooth="yes"/>
      <point x="184" y="610"/>
      <point x="209" y="603"/>
      <point x="200" y="574" type="curve" smooth="yes"/>
      <point x="64" y="137" type="line" smooth="yes"/>
      <point x="54" y="108"/>
      <point x="26" y="101"/>
      <point x="-9" y="101" type="curve" smooth="yes"/>
      <point x="-23" y="101" type="line"/>
      <point x="-53" y="0" type="line"/>
      <point x="405" y="0" type="line"/>
      <point x="434" y="101" type="line"/>
      <point x="410" y="101" type="line" smooth="yes"/>
      <point x="368" y="101"/>
      <point x="332" y="104"/>
      <point x="334" y="111" type="curve" smooth="yes"/>
    </contour>
    <contour>
      <point x="303" y="389" type="line"/>
      <point x="277" y="296" type="line"/>
      <point x="479" y="296" type="line" smooth="yes"/>
      <point x="515" y="296"/>
      <point x="518" y="271"/>
      <point x="511" y="248" type="curve" smooth="yes"/>
      <point x="506" y="232" type="line"/>
      <point x="617" y="232" type="line"/>
      <point x="684" y="450" type="line"/>
      <point x="573" y="450" type="line"/>
      <point x="568" y="438" type="line" smooth="yes"/>
      <point x="560" y="414"/>
      <point x="541" y="389"/>
      <point x="506" y="389" type="curve" smooth="yes"/>
    </contour>
  </outline>
</glyph>
<glyph name="blacksquare" format="2">
  <advance width="720"/>
  <outline>
    <contour>
      <point x="104" y="104" type="line"/>
      <point x="616" y="104" type="line"/>
      <point x="616" y="522" type="line"/>
      <point x="104" y="522" type="line"/>
    </contour>
  </outline>
</glyph>
<glyph name="braceleft.uc" format="2">
  <advance width="568"/>
  <outline>
    <contour>
      <point x="52" y="33" type="curve" smooth="yes"/>
      <point x="52" y="-59"/>
      <point x="148" y="-98"/>
      <point x="285" y="-98" type="curve" smooth="yes"/>
      <point x="340" y="-98"/>
      <point x="398" y="-94"/>
      <point x="426" y="-87" type="curve"/>
      <point x="468" y="5" type="line"/>
      <point x="445" y="1"/>
      <point x="419" y="0"/>
      <point x="401" y="0" type="curve" smooth="yes"/>
      <point x="318" y="0"/>
      <point x="278" y="10"/>
      <point x="278" y="48" type="curve" smooth="yes"/>
      <point x="278" y="117"/>
      <point x="456" y="157"/>
      <point x="456" y="237" type="curve" smooth="yes"/>
      <point x="456" y="296"/>
      <point x="408" y="324"/>
      <point x="230" y="334" type="curve"/>
      <point x="235" y="351" type="line"/>
      <point x="479" y="361"/>
      <point x="510" y="396"/>
      <point x="510" y="447" type="curve" smooth="yes"/>
      <point x="510" y="496"/>
      <point x="436" y="542"/>
      <point x="436" y="593" type="curve" smooth="yes"/>
      <point x="436" y="631"/>
      <point x="470" y="654"/>
      <point x="548" y="654" type="curve" smooth="yes"/>
      <point x="583" y="654"/>
      <point x="617" y="651"/>
      <point x="635" y="650" type="curve"/>
      <point x="628" y="742" type="line"/>
      <point x="585" y="749"/>
      <point x="539" y="752"/>
      <point x="489" y="752" type="curve" smooth="yes"/>
      <point x="318" y="752"/>
      <point x="209" y="713"/>
      <point x="209" y="608" type="curve" smooth="yes"/>
      <point x="209" y="523"/>
      <point x="289" y="483"/>
      <point x="333" y="402" type="curve"/>
      <point x="343" y="450" type="line"/>
      <point x="87" y="400" type="line"/>
      <point x="58" y="301" type="line"/>
      <point x="281" y="243" type="line"/>
      <point x="305" y="284" type="line"/>
      <point x="183" y="187"/>
      <point x="52" y="141"/>
    </contour>
  </outline>
</glyph>
<glyph name="brokenbar.uc" format="2">
  <advance width="458"/>
  <outline>
    <contour>
      <point x="154" y="760" type="line"/>
      <point x="154" y="445" type="line"/>
      <point x="304" y="445" type="line"/>
      <point x="304" y="760" type="line"/>
    </contour>
    <contour>
      <point x="154" y="260" type="line"/>
      <point x="154" y="-60" type="line"/>
      <point x="304" y="-60" type="line"/>
      <point x="304" y="260" type="line"/>
    </contour>
  </outline>
</glyph>
<glyph name="caron.alt" format="2">
  <advance width="613"/>
  <anchor x="149" y="574" name="_right"/>
  <outline>
    <contour>
      <point x="351" y="543" type="line"/>
      <point x="181" y="543" type="line"/>
      <point x="194" y="589" type="line"/>
      <point x="254" y="710" type="line"/>
      <point x="487" y="710" type="line"/>
    </contour>
  </outline>
</glyph>
<glyph name="cent.altprop" format="2">
  <advance width="787"/>
  <outline>
    <contour>
      <point x="210" y="-166" type="line"/>
      <point x="345" y="-166" type="line"/>
      <point x="402" y="20" type="line"/>
      <point x="263" y="11" type="line"/>
    </contour>
    <contour>
      <point x="426" y="546" type="line"/>
      <point x="565" y="555" type="line"/>
      <point x="610" y="703" type="line"/>
      <point x="474" y="703" type="line"/>
    </contour>
    <contour>
      <point x="492" y="477" type="curve" smooth="yes"/>
      <point x="553" y="477"/>
      <point x="589" y="464"/>
      <point x="608" y="440" type="curve"/>
      <point x="616" y="452"/>
      <point x="621" y="531"/>
      <point x="577" y="530" type="curve"/>
      <point x="521" y="343" type="line"/>
      <point x="719" y="343" type="line"/>
      <point x="774" y="527" type="line"/>
      <point x="738" y="544"/>
      <point x="640" y="583"/>
      <point x="477" y="583" type="curve" smooth="yes"/>
      <point x="167" y="583"/>
      <point x="20" y="423"/>
      <point x="20" y="237" type="curve" smooth="yes"/>
      <point x="20" y="80"/>
      <point x="168" y="-12"/>
      <point x="384" y="-12" type="curve" smooth="yes"/>
      <point x="553" y="-12"/>
      <point x="642" y="53"/>
      <point x="704" y="144" type="curve"/>
      <point x="608" y="200" type="line"/>
      <point x="564" y="143"/>
      <point x="520" y="98"/>
      <point x="415" y="98" type="curve" smooth="yes"/>
      <point x="323" y="98"/>
      <point x="288" y="130"/>
      <point x="288" y="190" type="curve" smooth="yes"/>
      <point x="288" y="279"/>
      <point x="329" y="477"/>
    </contour>
  </outline>
</glyph>
<glyph name="circumflex_acute.uc" format="2">
  <advance width="616"/>
  <anchor x="325" y="749" name="_top"/>
  <outline>
    <contour>
      <point x="641" y="1088" type="curve" smooth="yes"/>
      <point x="560" y="964" type="line"/>
      <point x="560" y="920" type="line"/>
      <point x="626" y="920" type="line"/>
      <point x="762" y="969" type="line" smooth="yes"/>
      <point x="859" y="1007"/>
      <point x="903" y="1039"/>
      <point x="903" y="1097" type="curve" smooth="yes"/>
      <point x="903" y="1152"/>
      <point x="856" y="1189"/>
      <point x="786" y="1189" type="curve" smooth="yes"/>
      <point x="712" y="1189"/>
      <point x="673" y="1141"/>
    </contour>
    <component base="circumflex.uc"/>
  </outline>
</glyph>
<glyph name="circumflex_hook" format="2">
  <advance width="615"/>
  <anchor x="326" y="559" name="_top"/>
  <outline>
    <contour>
      <point x="452" y="937" type="line"/>
      <point x="482" y="1041"/>
      <point x="583" y="1069"/>
      <point x="698" y="1069" type="curve" smooth="yes"/>
      <point x="855" y="1069"/>
      <point x="918" y="1028"/>
      <point x="918" y="956" type="curve" smooth="yes"/>
      <point x="918" y="866"/>
      <point x="831" y="828"/>
      <point x="626" y="828" type="curve"/>
      <point x="726" y="875" type="line"/>
      <point x="697" y="780" type="line"/>
      <point x="559" y="780" type="line"/>
      <point x="590" y="884" type="line"/>
      <point x="717" y="886"/>
      <point x="750" y="910"/>
      <point x="750" y="952" type="curve" smooth="yes"/>
      <point x="750" y="977"/>
      <point x="731" y="986"/>
      <point x="692" y="986" type="curve" smooth="yes"/>
      <point x="648" y="986"/>
      <point x="623" y="971"/>
      <point x="609" y="937" type="curve"/>
    </contour>
    <component base="circumflex"/>
  </outline>
</glyph>
<glyph name="commaaccent" format="2">
  <advance width="363"/>
  <anchor x="176" y="33" name="_bottom"/>
  <outline>
    <contour>
      <point x="31" y="-416" type="line"/>
      <point x="252" y="-398"/>
      <point x="350" y="-312"/>
      <point x="350" y="-172" type="curve" smooth="yes"/>
      <point x="350" y="-108"/>
      <point x="315" y="-69"/>
      <point x="200" y="-69" type="curve" smooth="yes"/>
      <point x="104" y="-69"/>
      <point x="55" y="-103"/>
      <point x="55" y="-165" type="curve" smooth="yes"/>
      <point x="55" y="-210"/>
      <point x="95" y="-235"/>
      <point x="164" y="-235" type="curve" smooth="yes"/>
      <point x="200" y="-235"/>
      <point x="233" y="-225"/>
      <point x="262" y="-207" type="curve"/>
      <point x="255" y="-204"/>
      <point x="241" y="-203"/>
      <point x="240" y="-212" type="curve"/>
      <point x="219" y="-275"/>
      <point x="172" y="-291"/>
      <point x="14" y="-310" type="curve"/>
    </contour>
  </outline>
</glyph>
<glyph name="currency.proportional" format="2">
  <advance width="765"/>
  <outline>
    <contour>
      <point x="353" y="147" type="curve" smooth="yes"/>
      <point x="498" y="147"/>
      <point x="671" y="268"/>
      <point x="671" y="386" type="curve" smooth="yes"/>
      <point x="671" y="486"/>
      <point x="570" y="601"/>
      <point x="435" y="601" type="curve" smooth="yes"/>
      <point x="290" y="601"/>
      <point x="117" y="479"/>
      <point x="117" y="361" type="curve" smooth="yes"/>
      <point x="117" y="262"/>
      <point x="218" y="147"/>
    </contour>
    <contour>
      <point x="384" y="276" type="curve" smooth="yes"/>
      <point x="310" y="276"/>
      <point x="280" y="300"/>
      <point x="280" y="348" type="curve" smooth="yes"/>
      <point x="280" y="406"/>
      <point x="314" y="471"/>
      <point x="405" y="471" type="curve" smooth="yes"/>
      <point x="479" y="471"/>
      <point x="508" y="447"/>
      <point x="508" y="399" type="curve" smooth="yes"/>
      <point x="508" y="341"/>
      <point x="475" y="276"/>
    </contour>
    <contour>
      <point x="81" y="91" type="line"/>
      <point x="265" y="210" type="line"/>
      <point x="167" y="302" type="line"/>
      <point x="-6" y="190" type="line"/>
    </contour>
    <contour>
      <point x="221" y="449" type="line"/>
      <point x="359" y="533" type="line"/>
      <point x="239" y="669" type="line"/>
      <point x="102" y="584" type="line"/>
    </contour>
    <contour>
      <point x="620" y="444" type="line"/>
      <point x="794" y="557" type="line"/>
      <point x="707" y="655" type="line"/>
      <point x="523" y="536" type="line"/>
    </contour>
    <contour>
      <point x="549" y="78" type="line"/>
      <point x="687" y="162" type="line"/>
      <point x="567" y="297" type="line"/>
      <point x="429" y="213" type="line"/>
    </contour>
  </outline>
</glyph>
<glyph name="five.lintab" format="2">
  <advance width="680"/>
  <outline>
    <contour>
      <point x="239" y="-11" type="curve" smooth="yes"/>
      <point x="469" y="-11"/>
      <point x="614" y="102"/>
      <point x="614" y="284" type="curve" smooth="yes"/>
      <point x="614" y="404"/>
      <point x="535" y="469"/>
      <point x="389" y="469" type="curve" smooth="yes"/>
      <point x="275" y="469"/>
      <point x="224" y="423"/>
      <point x="176" y="357" type="curve"/>
      <point x="208" y="377" type="line"/>
      <point x="306" y="690" type="line"/>
      <point x="241" y="553" type="line"/>
      <point x="611" y="553" type="line"/>
      <point x="674" y="710" type="line"/>
      <point x="193" y="710" type="line"/>
      <point x="66" y="292" type="line"/>
      <point x="174" y="292" type="line"/>
      <point x="204" y="340"/>
      <point x="239" y="365"/>
      <point x="293" y="365" type="curve" smooth="yes"/>
      <point x="347" y="365"/>
      <point x="370" y="339"/>
      <point x="370" y="289" type="curve" smooth="yes"/>
      <point x="370" y="221"/>
      <point x="343" y="94"/>
      <point x="228" y="94" type="curve" smooth="yes"/>
      <point x="141" y="94"/>
      <point x="112" y="130"/>
      <point x="95" y="183" type="curve"/>
      <point x="-41" y="153" type="line"/>
      <point x="-13" y="48"/>
      <point x="64" y="-11"/>
    </contour>
  </outline>
</glyph>
<glyph name="four.linprop" format="2">
  <advance width="797"/>
  <outline>
    <contour>
      <point x="532" y="710" type="line"/>
      <point x="518" y="684" type="line"/>
      <point x="349" y="137" type="line" smooth="yes"/>
      <point x="339" y="108"/>
      <point x="307" y="101"/>
      <point x="270" y="101" type="curve" smooth="yes"/>
      <point x="252" y="101" type="line"/>
      <point x="223" y="0" type="line"/>
      <point x="628" y="0" type="line"/>
      <point x="657" y="101" type="line"/>
      <point x="639" y="101" type="line" smooth="yes"/>
      <point x="603" y="101"/>
      <point x="573" y="108"/>
      <point x="583" y="137" type="curve" smooth="yes"/>
      <point x="760" y="710" type="line"/>
    </contour>
    <contour>
      <point x="-11" y="192" type="line"/>
      <point x="726" y="192" type="line"/>
      <point x="768" y="339" type="line"/>
      <point x="114" y="339" type="line"/>
      <point x="83" y="266" type="line"/>
      <point x="539" y="658" type="line"/>
      <point x="566" y="710" type="line"/>
      <point x="458" y="710" type="line"/>
      <point x="37" y="361" type="line"/>
    </contour>
  </outline>
</glyph>
<glyph name="four.oldtab" format="2">
  <advance width="680"/>
  <outline>
    <contour>
      <point x="-35" y="88" type="line"/>
      <point x="598" y="88" type="line"/>
      <point x="642" y="244" type="line"/>
      <point x="93" y="244" type="line"/>
      <point x="58" y="173" type="line"/>
      <point x="452" y="595" type="line"/>
      <point x="469" y="645" type="line"/>
      <point x="375" y="645" type="line"/>
      <point x="16" y="266" type="line"/>
    </contour>
    <contour>
      <point x="466" y="-70" type="line"/>
      <point x="684" y="645" type="line"/>
      <point x="439" y="645" type="line"/>
      <point x="438" y="619" type="line"/>
      <point x="227" y="-70" type="line"/>
    </contour>
  </outline>
</glyph>
<glyph name="minus.sub" format="2">
  <advance width="516"/>
  <outline>
    <contour>
      <point x="435" y="134" type="line"/>
      <point x="11" y="134" type="line"/>
      <point x="-18" y="31" type="line"/>
      <point x="406" y="31" type="line"/>
    </contour>
  </outline>
</glyph>
<glyph name="nine.oldprop" format="2">
  <advance width="771"/>
  <outline>
    <contour>
      <point x="4" y="18" type="line"/>
      <point x="214" y="17"/>
      <point x="340" y="79"/>
      <point x="416" y="163" type="curve" smooth="yes"/>
      <point x="500" y="262"/>
      <point x="521" y="390"/>
      <point x="521" y="479" type="curve" smooth="yes"/>
      <point x="521" y="533"/>
      <point x="495" y="562"/>
      <point x="435" y="562" type="curve" smooth="yes"/>
      <point x="367" y="562"/>
      <point x="329" y="503"/>
      <point x="309" y="442" type="curve" smooth="yes"/>
      <point x="295" y="397"/>
      <point x="290" y="353"/>
      <point x="290" y="329" type="curve" smooth="yes"/>
      <point x="290" y="292"/>
      <point x="306" y="273"/>
      <point x="364" y="273" type="curve" smooth="yes"/>
      <point x="415" y="273"/>
      <point x="454" y="290"/>
      <point x="522" y="359" type="curve"/>
      <point x="525" y="323" type="line"/>
      <point x="455" y="243"/>
      <point x="392" y="180"/>
      <point x="264" y="180" type="curve" smooth="yes"/>
      <point x="131" y="180"/>
      <point x="50" y="242"/>
      <point x="50" y="340" type="curve" smooth="yes"/>
      <point x="50" y="517"/>
      <point x="165" y="655"/>
      <point x="440" y="655" type="curve"/>
      <point x="645" y="655"/>
      <point x="755" y="573"/>
      <point x="755" y="441" type="curve" smooth="yes"/>
      <point x="755" y="182"/>
      <point x="549" y="-79"/>
      <point x="7" y="-86" type="curve"/>
    </contour>
  </outline>
</glyph>
<glyph name="one.linprop" format="2">
  <advance width="629"/>
  <outline>
    <contour>
      <point x="404" y="132" type="curve" smooth="yes"/>
      <point x="583" y="710" type="line"/>
      <point x="366" y="710" type="line"/>
      <point x="310" y="663"/>
      <point x="245" y="635"/>
      <point x="123" y="633" type="curve"/>
      <point x="83" y="493" type="line"/>
      <point x="184" y="492"/>
      <point x="262" y="515"/>
      <point x="327" y="634" type="curve"/>
      <point x="302" y="629" type="line"/>
      <point x="147" y="132" type="line" smooth="yes"/>
      <point x="136" y="92"/>
      <point x="79" y="85"/>
      <point x="28" y="85" type="curve" smooth="yes"/>
      <point x="-17" y="85" type="line"/>
      <point x="-42" y="0" type="line"/>
      <point x="492" y="0" type="line"/>
      <point x="518" y="85" type="line"/>
      <point x="492" y="85" type="line" smooth="yes"/>
      <point x="441" y="85"/>
      <point x="393" y="92"/>
    </contour>
  </outline>
</glyph>
<glyph name="parenleft.uc" format="2">
  <advance width="550"/>
  <outline>
    <contour>
      <point x="247" y="-80" type="curve"/>
      <point x="417" y="-80" type="line"/>
      <point x="418" y="-77" type="line"/>
      <point x="343" y="-16"/>
      <point x="278" y="77"/>
      <point x="278" y="214" type="curve" smooth="yes"/>
      <point x="278" y="464"/>
      <point x="456" y="626"/>
      <point x="681" y="747" type="curve"/>
      <point x="682" y="750" type="line"/>
      <point x="510" y="750" type="line"/>
      <point x="264" y="677"/>
      <point x="58" y="486"/>
      <point x="58" y="243" type="curve" smooth="yes"/>
      <point x="58" y="116"/>
      <point x="137" y="3"/>
    </contour>
  </outline>
</glyph>
<glyph name="plus.sub" format="2">
  <advance width="516"/>
  <outline>
    <contour>
      <point x="196" y="250" type="line"/>
      <point x="93" y="-85" type="line"/>
      <point x="221" y="-85" type="line"/>
      <point x="324" y="250" type="line"/>
    </contour>
    <contour>
      <point x="435" y="134" type="line"/>
      <point x="11" y="134" type="line"/>
      <point x="-18" y="31" type="line"/>
      <point x="406" y="31" type="line"/>
    </contour>
  </outline>
</glyph>
<glyph name="ring.uc" format="2">
  <advance width="613"/>
  <anchor x="306" y="731" name="_top"/>
  <outline>
    <contour>
      <point x="304" y="864" type="curve" smooth="yes"/>
      <point x="247" y="864"/>
      <point x="221" y="886"/>
      <point x="221" y="921" type="curve" smooth="yes"/>
      <point x="221" y="955"/>
      <point x="242" y="995"/>
      <point x="308" y="995" type="curve" smooth="yes"/>
      <point x="366" y="995"/>
      <point x="391" y="974"/>
      <point x="391" y="939" type="curve" smooth="yes"/>
      <point x="391" y="905"/>
      <point x="370" y="864"/>
    </contour>
    <contour>
      <point x="298" y="770" type="curve" smooth="yes"/>
      <point x="447" y="770"/>
      <point x="535" y="842"/>
      <point x="535" y="940" type="curve" smooth="yes"/>
      <point x="535" y="1027"/>
      <point x="454" y="1089"/>
      <point x="313" y="1089" type="curve" smooth="yes"/>
      <point x="164" y="1089"/>
      <point x="77" y="1017"/>
      <point x="77" y="920" type="curve" smooth="yes"/>
      <point x="77" y="833"/>
      <point x="159" y="770"/>
    </contour>
  </outline>
</glyph>
<glyph name="seven.oldprop" format="2">
  <advance width="688"/>
  <outline>
    <contour>
      <point x="319" y="477" type="line" smooth="yes"/>
      <point x="238" y="477"/>
      <point x="205" y="470"/>
      <point x="189" y="434" type="curve" smooth="yes"/>
      <point x="147" y="337" type="line"/>
      <point x="45" y="337" type="line"/>
      <point x="133" y="645" type="line"/>
      <point x="742" y="645" type="line"/>
      <point x="692" y="467" type="line"/>
      <point x="497" y="363"/>
      <point x="407" y="253"/>
      <point x="334" y="-71" type="curve"/>
      <point x="53" y="-71" type="line"/>
      <point x="147" y="235"/>
      <point x="467" y="439"/>
      <point x="622" y="494" type="curve"/>
      <point x="640" y="477" type="line"/>
    </contour>
  </outline>
</glyph>
<glyph name="seven.oldtab" format="2">
  <advance width="680"/>
  <outline>
    <contour>
      <point x="335" y="482" type="line" smooth="yes"/>
      <point x="254" y="482"/>
      <point x="220" y="475"/>
      <point x="205" y="439" type="curve" smooth="yes"/>
      <point x="162" y="343" type="line"/>
      <point x="60" y="343" type="line"/>
      <point x="150" y="645" type="line"/>
      <point x="739" y="645" type="line"/>
      <point x="690" y="473" type="line"/>
      <point x="501" y="358"/>
      <point x="412" y="250"/>
      <point x="315" y="-71" type="curve"/>
      <point x="68" y="-71" type="line"/>
      <point x="174" y="231"/>
      <point x="471" y="434"/>
      <point x="621" y="500" type="curve"/>
      <point x="639" y="482" type="line"/>
    </contour>
  </outline>
</glyph>
<glyph name="sterling.altprop" format="2">
  <advance width="815"/>
  <outline>
    <contour>
      <point x="65" y="420" type="line"/>
      <point x="32" y="309" type="line"/>
      <point x="603" y="309" type="line"/>
      <point x="635" y="420" type="line"/>
    </contour>
    <contour>
      <point x="-41" y="0" type="line"/>
      <point x="677" y="0" type="line"/>
      <point x="749" y="244" type="line"/>
      <point x="617" y="244" type="line"/>
      <point x="579" y="180" type="line" smooth="yes"/>
      <point x="558" y="142"/>
      <point x="522" y="135"/>
      <point x="427" y="135" type="curve" smooth="yes"/>
      <point x="138" y="135" type="line"/>
      <point x="78" y="88" type="line"/>
      <point x="296" y="118"/>
      <point x="420" y="200"/>
      <point x="420" y="325" type="curve" smooth="yes"/>
      <point x="420" y="388"/>
      <point x="410" y="432"/>
      <point x="410" y="496" type="curve" smooth="yes"/>
      <point x="410" y="587"/>
      <point x="438" y="632"/>
      <point x="544" y="632" type="curve" smooth="yes"/>
      <point x="620" y="632"/>
      <point x="662" y="614"/>
      <point x="693" y="591" type="curve"/>
      <point x="690" y="599"/>
      <point x="660" y="678"/>
      <point x="623" y="680" type="curve"/>
      <point x="570" y="510" type="line"/>
      <point x="765" y="510" type="line"/>
      <point x="818" y="686" type="line"/>
      <point x="772" y="710"/>
      <point x="661" y="735"/>
      <point x="519" y="735" type="curve" smooth="yes"/>
      <point x="280" y="735"/>
      <point x="137" y="672"/>
      <point x="137" y="549" type="curve" smooth="yes"/>
      <point x="137" y="468"/>
      <point x="209" y="431"/>
      <point x="209" y="299" type="curve" smooth="yes"/>
      <point x="209" y="204"/>
      <point x="124" y="166"/>
      <point x="-2" y="139" type="curve"/>
    </contour>
  </outline>
</glyph>
<glyph name="three.linprop" format="2">
  <advance width="733"/>
  <outline>
    <contour>
      <point x="396" y="377" type="line"/>
      <point x="568" y="389"/>
      <point x="728" y="412"/>
      <point x="728" y="571" type="curve" smooth="yes"/>
      <point x="728" y="678"/>
      <point x="616" y="735"/>
      <point x="420" y="735" type="curve" smooth="yes"/>
      <point x="305" y="735"/>
      <point x="218" y="715"/>
      <point x="166" y="700" type="curve"/>
      <point x="113" y="520" type="line"/>
      <point x="302" y="520" type="line"/>
      <point x="345" y="660" type="line"/>
      <point x="305" y="656"/>
      <point x="284" y="644"/>
      <point x="276" y="625" type="curve"/>
      <point x="296" y="632"/>
      <point x="325" y="642"/>
      <point x="391" y="642" type="curve" smooth="yes"/>
      <point x="456" y="642"/>
      <point x="487" y="627"/>
      <point x="487" y="585" type="curve" smooth="yes"/>
      <point x="487" y="512"/>
      <point x="441" y="425"/>
      <point x="317" y="425" type="curve" smooth="yes"/>
      <point x="210" y="425" type="line"/>
      <point x="181" y="323" type="line"/>
      <point x="269" y="323" type="line" smooth="yes"/>
      <point x="376" y="323"/>
      <point x="415" y="296"/>
      <point x="415" y="245" type="curve" smooth="yes"/>
      <point x="415" y="177"/>
      <point x="392" y="88"/>
      <point x="276" y="88" type="curve" smooth="yes"/>
      <point x="150" y="88"/>
      <point x="115" y="173"/>
      <point x="97" y="216" type="curve"/>
      <point x="-39" y="173" type="line"/>
      <point x="-12" y="85"/>
      <point x="51" y="-11"/>
      <point x="290" y="-11" type="curve" smooth="yes"/>
      <point x="539" y="-11"/>
      <point x="668" y="61"/>
      <point x="668" y="211" type="curve" smooth="yes"/>
      <point x="668" y="306"/>
      <point x="573" y="363"/>
      <point x="394" y="373" type="curve"/>
      <point x="431" y="346" type="line"/>
      <point x="445" y="399" type="line"/>
    </contour>
  </outline>
</glyph>
<glyph name="three.lintab" format="2">
  <advance width="680"/>
  <outline>
    <contour>
      <point x="248" y="-10" type="curve" smooth="yes"/>
      <point x="492" y="-10"/>
      <point x="607" y="70"/>
      <point x="607" y="206" type="curve" smooth="yes"/>
      <point x="607" y="307"/>
      <point x="529" y="358"/>
      <point x="362" y="373" type="curve"/>
      <point x="400" y="348" type="line"/>
      <point x="411" y="387" type="line"/>
      <point x="365" y="375" type="line"/>
      <point x="565" y="382"/>
      <point x="676" y="440"/>
      <point x="676" y="573" type="curve" smooth="yes"/>
      <point x="676" y="683"/>
      <point x="579" y="735"/>
      <point x="391" y="735" type="curve" smooth="yes"/>
      <point x="281" y="735"/>
      <point x="202" y="718"/>
      <point x="149" y="703" type="curve"/>
      <point x="96" y="523" type="line"/>
      <point x="271" y="523" type="line"/>
      <point x="312" y="659" type="line"/>
      <point x="273" y="654"/>
      <point x="254" y="647"/>
      <point x="249" y="631" type="curve"/>
      <point x="276" y="637"/>
      <point x="317" y="642"/>
      <point x="354" y="642" type="curve" smooth="yes"/>
      <point x="421" y="642"/>
      <point x="449" y="628"/>
      <point x="449" y="573" type="curve" smooth="yes"/>
      <point x="449" y="500"/>
      <point x="408" y="424"/>
      <point x="294" y="424" type="curve" smooth="yes"/>
      <point x="174" y="424" type="line"/>
      <point x="144" y="321" type="line"/>
      <point x="255" y="321" type="line" smooth="yes"/>
      <point x="342" y="321"/>
      <point x="369" y="284"/>
      <point x="369" y="232" type="curve" smooth="yes"/>
      <point x="369" y="163"/>
      <point x="342" y="89"/>
      <point x="238" y="89" type="curve" smooth="yes"/>
      <point x="136" y="89"/>
      <point x="107" y="141"/>
      <point x="85" y="197" type="curve"/>
      <point x="-47" y="154" type="line"/>
      <point x="-12" y="62"/>
      <point x="52" y="-10"/>
    </contour>
  </outline>
</glyph>
<glyph name="three.oldprop" format="2">
  <advance width="738"/>
  <outline>
    <contour>
      <point x="392" y="300" type="line"/>
      <point x="564" y="310"/>
      <point x="725" y="332"/>
      <point x="725" y="494" type="curve" smooth="yes"/>
      <point x="725" y="599"/>
      <point x="611" y="655"/>
      <point x="415" y="655" type="curve" smooth="yes"/>
      <point x="300" y="655"/>
      <point x="212" y="635"/>
      <point x="160" y="620" type="curve"/>
      <point x="107" y="440" type="line"/>
      <point x="296" y="440" type="line"/>
      <point x="339" y="580" type="line"/>
      <point x="299" y="576"/>
      <point x="278" y="564"/>
      <point x="270" y="545" type="curve"/>
      <point x="289" y="552"/>
      <point x="321" y="562"/>
      <point x="386" y="562" type="curve" smooth="yes"/>
      <point x="451" y="562"/>
      <point x="484" y="547"/>
      <point x="484" y="506" type="curve" smooth="yes"/>
      <point x="484" y="435"/>
      <point x="436" y="348"/>
      <point x="312" y="348" type="curve"/>
      <point x="205" y="348" type="line"/>
      <point x="176" y="246" type="line"/>
      <point x="264" y="246" type="line"/>
      <point x="371" y="246"/>
      <point x="415" y="218"/>
      <point x="415" y="171" type="curve" smooth="yes"/>
      <point x="415" y="100"/>
      <point x="389" y="15"/>
      <point x="266" y="15" type="curve" smooth="yes"/>
      <point x="143" y="15"/>
      <point x="109" y="100"/>
      <point x="91" y="143" type="curve"/>
      <point x="-45" y="100" type="line"/>
      <point x="-18" y="12"/>
      <point x="50" y="-84"/>
      <point x="287" y="-84" type="curve" smooth="yes"/>
      <point x="536" y="-84"/>
      <point x="667" y="-13"/>
      <point x="667" y="136" type="curve" smooth="yes"/>
      <point x="667" y="228"/>
      <point x="568" y="283"/>
      <point x="389" y="296" type="curve"/>
      <point x="426" y="269" type="line"/>
      <point x="441" y="322" type="line"/>
    </contour>
  </outline>
</glyph>
<glyph name="two.linprop" format="2">
  <advance width="741"/>
  <outline>
    <contour>
      <point x="410" y="157" type="line" smooth="yes"/>
      <point x="504" y="157"/>
      <point x="539" y="159"/>
      <point x="557" y="196" type="curve" smooth="yes"/>
      <point x="586" y="246" type="line"/>
      <point x="697" y="246" type="line"/>
      <point x="629" y="0" type="line"/>
      <point x="-57" y="0" type="line"/>
      <point x="0" y="202" type="line"/>
      <point x="368" y="336"/>
      <point x="467" y="399"/>
      <point x="467" y="560" type="curve" smooth="yes"/>
      <point x="467" y="617"/>
      <point x="445" y="636"/>
      <point x="375" y="636" type="curve" smooth="yes"/>
      <point x="319" y="636"/>
      <point x="280" y="626"/>
      <point x="247" y="613" type="curve"/>
      <point x="231" y="627"/>
      <point x="273" y="651"/>
      <point x="319" y="656" type="curve"/>
      <point x="269" y="489" type="line"/>
      <point x="71" y="489" type="line"/>
      <point x="128" y="684" type="line"/>
      <point x="189" y="711"/>
      <point x="283" y="735"/>
      <point x="406" y="735" type="curve" smooth="yes"/>
      <point x="620" y="735"/>
      <point x="725" y="675"/>
      <point x="725" y="541" type="curve" smooth="yes"/>
      <point x="725" y="329"/>
      <point x="450" y="283"/>
      <point x="44" y="141" type="curve"/>
      <point x="36" y="157" type="line"/>
    </contour>
  </outline>
</glyph>
<glyph name="uni20B4.proportional" format="2">
  <advance width="849"/>
  <outline>
    <contour>
      <point x="673" y="446" type="line"/>
      <point x="753" y="470"/>
      <point x="820" y="518"/>
      <point x="820" y="596" type="curve" smooth="yes"/>
      <point x="820" y="694"/>
      <point x="698" y="730"/>
      <point x="523" y="730" type="curve"/>
      <point x="391" y="730"/>
      <point x="291" y="705"/>
      <point x="247" y="689" type="curve"/>
      <point x="208" y="558" type="line"/>
      <point x="406" y="558" type="line"/>
      <point x="440" y="672" type="line"/>
      <point x="408" y="669"/>
      <point x="335" y="625"/>
      <point x="335" y="611" type="curve"/>
      <point x="371" y="631"/>
      <point x="419" y="647"/>
      <point x="482" y="647" type="curve" smooth="yes"/>
      <point x="561" y="647"/>
      <point x="587" y="629"/>
      <point x="587" y="594" type="curve" smooth="yes"/>
      <point x="587" y="534"/>
      <point x="536" y="499"/>
      <point x="455" y="462" type="curve"/>
    </contour>
    <contour>
      <point x="376" y="-10" type="curve"/>
      <point x="529" y="-10"/>
      <point x="632" y="24"/>
      <point x="672" y="38" type="curve"/>
      <point x="714" y="175" type="line"/>
      <point x="513" y="175" type="line"/>
      <point x="480" y="64" type="line"/>
      <point x="500" y="47"/>
      <point x="585" y="98"/>
      <point x="592" y="115" type="curve"/>
      <point x="540" y="98"/>
      <point x="481" y="78"/>
      <point x="415" y="78" type="curve" smooth="yes"/>
      <point x="326" y="78"/>
      <point x="291" y="101"/>
      <point x="291" y="149" type="curve" smooth="yes"/>
      <point x="291" y="202"/>
      <point x="331" y="246"/>
      <point x="417" y="271" type="curve"/>
      <point x="179" y="296" type="line"/>
      <point x="98" y="264"/>
      <point x="52" y="214"/>
      <point x="52" y="147" type="curve" smooth="yes"/>
      <point x="52" y="42"/>
      <point x="181" y="-10"/>
    </contour>
    <contour>
      <point x="42" y="332" type="line"/>
      <point x="13" y="235" type="line"/>
      <point x="761" y="235" type="line"/>
      <point x="790" y="332" type="line"/>
    </contour>
    <contour>
      <point x="92" y="499" type="line"/>
      <point x="64" y="402" type="line"/>
      <point x="813" y="402" type="line"/>
      <point x="840" y="499" type="line"/>
    </contour>
  </outline>
</glyph>
<glyph name="zero.linprop" format="2">
  <advance width="837"/>
  <outline>
    <contour>
      <point x="803" y="479" type="curve" smooth="yes"/>
      <point x="803" y="633"/>
      <point x="674" y="735"/>
      <point x="482" y="735" type="curve" smooth="yes"/>
      <point x="170" y="735"/>
      <point x="34" y="484"/>
      <point x="34" y="245" type="curve" smooth="yes"/>
      <point x="34" y="91"/>
      <point x="163" y="-11"/>
      <point x="356" y="-11" type="curve" smooth="yes"/>
      <point x="666" y="-11"/>
      <point x="803" y="239"/>
    </contour>
    <contour>
      <point x="353" y="88" type="curve" smooth="yes"/>
      <point x="285" y="88"/>
      <point x="264" y="114"/>
      <point x="264" y="161" type="curve" smooth="yes"/>
      <point x="264" y="206"/>
      <point x="279" y="274"/>
      <point x="310" y="382" type="curve" smooth="yes"/>
      <point x="373" y="598"/>
      <point x="409" y="636"/>
      <point x="484" y="636" type="curve" smooth="yes"/>
      <point x="552" y="636"/>
      <point x="573" y="610"/>
      <point x="573" y="563" type="curve" smooth="yes"/>
      <point x="573" y="518"/>
      <point x="558" y="450"/>
      <point x="526" y="342" type="curve" smooth="yes"/>
      <point x="464" y="126"/>
      <point x="428" y="88"/>
    </contour>
  </outline>
</glyph>
<glyph name="zero.slashlinprop" format="2">
  <advance width="837"/>
  <outline>
    <contour>
      <point x="189" y="149" type="line"/>
      <point x="664" y="487" type="line"/>
      <point x="654" y="574" type="line"/>
      <point x="175" y="233" type="line"/>
    </contour>
    <contour>
      <point x="803" y="479" type="curve" smooth="yes"/>
      <point x="803" y="633"/>
      <point x="674" y="735"/>
      <point x="482" y="735" type="curve" smooth="yes"/>
      <point x="170" y="735"/>
      <point x="34" y="484"/>
      <point x="34" y="245" type="curve" smooth="yes"/>
      <point x="34" y="91"/>
      <point x="163" y="-11"/>
      <point x="356" y="-11" type="curve" smooth="yes"/>
      <point x="666" y="-11"/>
      <point x="803" y="239"/>
    </contour>
    <contour>
      <point x="353" y="88" type="curve" smooth="yes"/>
      <point x="285" y="88"/>
      <point x="264" y="114"/>
      <point x="264" y="161" type="curve" smooth="yes"/>
      <point x="264" y="206"/>
      <point x="279" y="274"/>
      <point x="310" y="382" type="curve" smooth="yes"/>
      <point x="373" y="598"/>
      <point x="409" y="636"/>
      <point x="484" y="636" type="curve" smooth="yes"/>
      <point x="552" y="636"/>
      <point x="573" y="610"/>
      <point x="573" y="563" type="curve" smooth="yes"/>
      <point x="573" y="518"/>
      <point x="558" y="450"/>
      <point x="526" y="342" type="curve" smooth="yes"/>
      <point x="464" y="126"/>
      <point x="428" y="88"/>
    </contour>
  </outline>
</glyph>
<glyph name="zero.slashold" format="2">
  <advance width="680"/>
  <outline>
    <contour>
      <point x="283" y="-11" type="curve"/>
      <point x="579" y="-11"/>
      <point x="669" y="278"/>
      <point x="669" y="438" type="curve" smooth="yes"/>
      <point x="669" y="568"/>
      <point x="577" y="655"/>
      <point x="403" y="655" type="curve"/>
      <point x="107" y="655"/>
      <point x="17" y="366"/>
      <point x="17" y="206" type="curve" smooth="yes"/>
      <point x="17" y="76"/>
      <point x="109" y="-11"/>
    </contour>
    <contour>
      <point x="114" y="109" type="line"/>
      <point x="587" y="449" type="line"/>
      <point x="577" y="535" type="line"/>
      <point x="101" y="192" type="line"/>
    </contour>
    <contour>
      <point x="279" y="88" type="curve" smooth="yes"/>
      <point x="238" y="88"/>
      <point x="227" y="97"/>
      <point x="227" y="132" type="curve" smooth="yes"/>
      <point x="227" y="167"/>
      <point x="239" y="224"/>
      <point x="270" y="328" type="curve" smooth="yes"/>
      <point x="326" y="509"/>
      <point x="352" y="556"/>
      <point x="407" y="556" type="curve" smooth="yes"/>
      <point x="448" y="556"/>
      <point x="459" y="547"/>
      <point x="459" y="512" type="curve" smooth="yes"/>
      <point x="459" y="477"/>
      <point x="447" y="420"/>
      <point x="416" y="316" type="curve" smooth="yes"/>
      <point x="360" y="135"/>
      <point x="334" y="88"/>
    </contour>
  </outline>
</glyph>
